{"glyphs":{"0":{"ha":815,"x_min":68,"x_max":747,"o":"m 408 828 q 271 731 321 828 q 221 463 221 634 q 271 194 221 291 q 408 97 321 97 q 545 194 495 97 q 595 463 595 290 q 545 731 595 635 q 408 828 495 828 m 408 940 q 652 807 556 940 q 747 463 747 673 q 652 118 747 252 q 408 -16 556 -16 q 164 118 260 -16 q 68 463 68 252 q 164 807 68 673 q 408 940 260 940 z "},"1":{"ha":815,"x_min":170,"x_max":510,"o":"m 510 0 l 371 0 l 371 754 q 272 692 321 714 q 170 663 223 669 l 170 793 q 281 837 230 805 q 382 926 332 869 l 510 926 l 510 0 z "},"2":{"ha":815,"x_min":97,"x_max":682,"o":"m 672 118 l 672 0 l 106 0 l 106 118 q 437 446 339 321 q 534 660 534 570 q 490 774 534 731 q 374 818 446 818 q 273 794 319 818 q 175 717 227 771 l 97 803 q 248 909 175 876 q 399 943 321 943 q 601 862 519 943 q 682 664 682 781 q 592 422 682 551 q 296 118 502 294 l 672 118 z "},"3":{"ha":815,"x_min":123,"x_max":688,"o":"m 224 468 l 224 549 l 457 802 l 123 802 l 123 926 l 637 926 l 637 817 l 419 579 q 617 492 546 565 q 688 304 688 419 q 585 67 688 155 q 307 -21 481 -21 q 215 -14 259 -21 q 127 7 171 -7 l 127 132 q 224 105 182 113 q 307 97 267 97 q 469 153 408 97 q 530 301 530 210 q 470 427 530 384 q 297 471 410 471 q 237 469 281 471 q 224 468 228 468 z "},"4":{"ha":815,"x_min":60,"x_max":762,"o":"m 519 926 l 220 296 l 484 296 l 484 636 l 623 636 l 623 296 l 762 296 l 762 178 l 623 178 l 623 0 l 484 0 l 484 178 l 60 178 l 60 277 l 382 926 l 519 926 z "},"5":{"ha":815,"x_min":122,"x_max":694,"o":"m 122 7 l 122 132 q 214 106 167 115 q 309 97 260 97 q 477 152 415 97 q 539 301 539 207 q 476 430 539 388 q 285 472 414 472 q 222 469 254 472 q 158 461 190 467 l 197 926 l 652 926 l 652 802 l 328 802 l 307 581 q 330 583 321 582 q 349 583 340 583 q 604 510 513 583 q 694 304 694 437 q 591 66 694 153 q 309 -21 488 -21 q 209 -14 254 -21 q 122 7 164 -7 z "},"6":{"ha":815,"x_min":97,"x_max":732,"o":"m 635 819 q 575 834 604 829 q 518 839 547 839 q 330 765 396 839 q 254 542 264 690 q 354 571 304 562 q 456 581 403 581 q 659 507 586 581 q 732 302 732 433 q 648 72 732 161 q 429 -17 564 -17 q 181 104 266 -17 q 97 461 97 226 q 203 812 97 682 q 489 942 310 942 q 569 935 528 942 q 657 911 610 927 l 635 819 m 254 416 l 254 397 q 299 174 254 251 q 429 97 344 97 q 541 151 502 97 q 579 306 579 205 q 541 430 579 387 q 428 472 502 472 q 332 458 376 472 q 254 416 289 444 z "},"7":{"ha":815,"x_min":119,"x_max":700,"o":"m 700 822 l 349 0 l 195 0 l 541 802 l 119 802 l 119 926 l 700 926 l 700 822 z "},"8":{"ha":815,"x_min":71,"x_max":746,"o":"m 558 498 q 699 396 652 457 q 746 253 746 334 q 651 64 746 140 q 412 -11 556 -11 q 166 63 262 -11 q 71 252 71 138 q 114 384 71 322 q 243 500 157 446 q 146 597 177 544 q 115 718 115 650 q 195 881 115 823 q 418 939 275 939 q 624 878 547 939 q 701 717 701 817 q 667 600 701 652 q 558 498 633 547 m 444 542 q 525 621 500 581 q 550 711 550 661 q 508 809 550 772 q 399 847 466 847 q 297 811 336 847 q 258 717 258 776 q 308 611 258 658 q 444 542 357 565 m 357 439 q 253 350 284 394 q 221 249 221 306 q 271 133 221 175 q 410 92 321 92 q 538 131 488 92 q 587 232 587 170 q 531 344 587 294 q 357 439 475 395 z "},"9":{"ha":815,"x_min":77,"x_max":711,"o":"m 149 117 q 226 93 191 100 q 296 86 261 86 q 477 160 413 86 q 554 383 542 234 q 464 354 512 363 q 353 345 416 345 q 150 418 222 345 q 77 623 77 492 q 162 851 77 760 q 378 942 247 942 q 627 821 543 942 q 711 464 711 700 q 605 117 711 245 q 318 -11 498 -11 q 225 -2 272 -11 q 126 25 179 7 l 149 117 m 554 509 l 554 533 q 509 752 554 676 q 379 828 464 828 q 268 774 306 828 q 229 619 229 721 q 266 498 229 541 q 371 456 302 456 q 466 468 423 456 q 554 509 509 480 z "},"¤":{"ha":833,"x_min":69,"x_max":764,"o":"m 69 -245 l 69 979 l 764 979 l 764 -245 l 69 -245 m 147 -168 l 686 -168 l 686 901 l 147 901 l 147 -168 z "}," ":{"ha":408,"x_min":0,"x_max":0,"o":""},"!":{"ha":421,"x_min":132,"x_max":288,"o":"m 132 0 l 132 155 l 288 155 l 288 0 l 132 0 m 288 926 l 288 621 l 241 250 l 178 250 l 132 621 l 132 926 l 288 926 z "},"\"":{"ha":562,"x_min":104,"x_max":458,"o":"m 340 607 l 319 926 l 458 926 l 437 607 l 340 607 m 125 607 l 104 926 l 243 926 l 222 607 l 125 607 z "},"#":{"ha":1152,"x_min":74,"x_max":1078,"o":"m 660 0 l 547 0 l 629 244 l 370 244 l 288 0 l 175 0 l 257 244 l 74 244 l 109 349 l 293 349 l 371 581 l 184 581 l 220 685 l 406 685 l 488 926 l 600 926 l 518 685 l 778 685 l 860 926 l 972 926 l 890 685 l 1078 685 l 1039 581 l 856 581 l 778 349 l 966 349 l 928 244 l 742 244 l 660 0 m 665 349 l 743 581 l 484 581 l 406 349 l 665 349 z "},"$":{"ha":815,"x_min":89,"x_max":720,"o":"m 358 576 l 358 821 q 283 780 309 811 q 257 697 257 749 q 283 623 257 654 q 358 576 309 592 m 458 114 q 539 161 512 128 q 567 245 567 195 q 541 329 567 295 q 458 386 514 363 l 458 114 m 458 547 q 656 432 592 505 q 720 249 720 359 q 647 80 720 153 q 458 -11 575 8 l 458 -115 l 358 -115 l 358 -14 q 220 16 287 -7 q 89 79 154 39 l 144 191 q 249 132 196 153 q 358 107 302 111 l 358 424 q 163 522 222 464 q 104 672 104 581 q 172 856 104 783 q 358 946 240 929 l 358 1044 l 458 1044 l 458 946 q 568 920 512 941 q 682 864 624 899 l 627 761 q 539 801 581 786 q 458 819 498 815 l 458 547 z "},"%":{"ha":1022,"x_min":45,"x_max":979,"o":"m 777 482 q 922 412 865 482 q 979 233 979 342 q 922 55 979 125 q 777 -16 864 -16 q 631 55 689 -16 q 574 233 574 125 q 631 412 574 342 q 777 482 688 482 m 777 401 q 705 359 728 401 q 681 233 681 317 q 705 107 681 149 q 777 65 728 65 q 848 108 823 65 q 872 233 872 151 q 848 359 872 317 q 777 401 824 401 m 183 0 l 721 926 l 838 926 l 300 0 l 183 0 m 248 860 q 175 818 199 860 q 151 692 151 776 q 175 566 151 608 q 248 524 199 524 q 319 566 294 524 q 343 692 343 609 q 319 818 343 775 q 248 860 295 860 m 248 940 q 393 870 336 940 q 450 692 450 801 q 393 513 450 584 q 248 443 335 443 q 102 513 159 443 q 45 692 45 584 q 102 870 45 801 q 248 940 159 940 z "},"&":{"ha":907,"x_min":65,"x_max":907,"o":"m 339 419 q 250 355 281 398 q 218 257 218 313 q 260 146 218 187 q 371 104 301 104 q 469 122 425 104 q 555 176 514 139 l 339 419 m 257 511 q 163 622 191 571 q 135 733 135 673 q 204 879 135 823 q 383 936 274 936 q 560 878 494 936 q 626 721 625 820 l 485 721 q 456 787 482 764 q 385 811 430 811 q 313 788 342 811 q 285 730 285 764 q 300 675 285 704 q 351 608 316 646 l 643 290 q 671 355 663 319 q 679 475 679 392 l 804 475 l 804 446 q 788 302 804 366 q 737 186 772 239 l 907 0 l 713 0 l 644 77 q 516 6 584 30 q 370 -17 448 -17 q 150 54 234 -17 q 65 236 65 125 q 115 399 65 328 q 257 511 165 471 z "},"'":{"ha":347,"x_min":104,"x_max":243,"o":"m 125 607 l 104 926 l 243 926 l 222 607 l 125 607 z "},"(":{"ha":558,"x_min":165,"x_max":497,"o":"m 419 926 l 497 878 q 365 585 408 727 q 322 294 322 443 q 366 -1 322 140 q 497 -268 410 -143 l 419 -317 q 231 -20 296 -176 q 165 294 165 137 q 229 605 165 448 q 419 926 292 762 z "},")":{"ha":558,"x_min":61,"x_max":393,"o":"m 139 -317 l 61 -268 q 194 25 151 -117 q 236 315 236 167 q 192 611 236 469 q 61 878 148 753 l 139 926 q 328 629 263 786 q 393 315 393 473 q 330 5 393 161 q 139 -317 267 -152 z "},"*":{"ha":490,"x_min":37,"x_max":503,"o":"m 309 940 l 309 766 l 472 828 l 503 755 l 336 697 l 437 558 l 374 511 l 269 657 l 170 511 l 102 558 l 200 697 l 37 755 l 65 828 l 228 766 l 228 940 l 309 940 z "},"+":{"ha":972,"x_min":136,"x_max":836,"o":"m 546 408 l 546 118 l 427 118 l 427 408 l 136 408 l 136 528 l 427 528 l 427 818 l 546 818 l 546 528 l 836 528 l 836 408 l 546 408 z "},",":{"ha":361,"x_min":12,"x_max":256,"o":"m 12 -184 l 100 155 l 256 155 l 123 -184 l 12 -184 z "},"-":{"ha":515,"x_min":78,"x_max":437,"o":"m 78 314 l 78 444 l 437 444 l 437 314 l 78 314 z "},".":{"ha":367,"x_min":106,"x_max":261,"o":"m 106 0 l 106 155 l 261 155 l 261 0 l 106 0 z "},"/":{"ha":503,"x_min":0,"x_max":503,"o":"m 0 0 l 375 926 l 503 926 l 127 0 l 0 0 z "},":":{"ha":367,"x_min":106,"x_max":261,"o":"m 106 0 l 106 155 l 261 155 l 261 0 l 106 0 m 261 681 l 261 525 l 106 525 l 106 681 l 261 681 z "},";":{"ha":361,"x_min":12,"x_max":256,"o":"m 12 -184 l 100 155 l 256 155 l 123 -184 l 12 -184 m 256 681 l 256 525 l 100 525 l 100 681 l 256 681 z "},"<":{"ha":972,"x_min":134,"x_max":839,"o":"m 839 831 l 839 705 l 293 468 l 839 231 l 839 106 l 134 425 l 134 511 l 839 831 z "},"=":{"ha":972,"x_min":136,"x_max":836,"o":"m 136 664 l 836 664 l 836 545 l 136 545 l 136 664 m 136 392 l 836 392 l 836 272 l 136 272 l 136 392 z "},">":{"ha":972,"x_min":134,"x_max":839,"o":"m 134 831 l 839 511 l 839 425 l 134 106 l 134 231 l 679 468 l 134 705 l 134 831 z "},"?":{"ha":629,"x_min":33,"x_max":575,"o":"m 358 273 l 210 272 q 232 426 210 368 q 313 542 254 484 l 350 579 q 365 594 355 585 q 428 705 428 655 q 393 778 428 749 q 304 807 358 807 q 212 780 252 807 q 143 700 172 753 l 33 761 q 146 890 79 848 q 304 933 214 933 q 504 876 432 933 q 575 714 575 818 q 473 517 575 619 l 465 510 l 422 465 q 374 389 388 431 q 358 273 359 347 m 210 0 l 210 155 l 358 155 l 358 0 l 210 0 z "},"@":{"ha":1128,"x_min":78,"x_max":1050,"o":"m 1006 204 q 826 40 932 96 q 593 -17 721 -17 q 220 121 361 -17 q 78 485 78 259 q 221 845 78 703 q 586 986 365 986 q 917 868 784 986 q 1050 574 1050 749 q 955 316 1050 418 q 722 215 861 215 q 655 232 676 215 q 631 288 635 248 q 562 235 597 252 q 488 218 527 218 q 360 277 411 218 q 309 425 309 335 q 388 640 309 549 q 578 730 467 730 q 659 710 622 730 q 721 648 695 689 l 737 714 l 833 714 l 749 396 q 742 366 744 380 q 739 346 739 352 q 749 320 739 328 q 779 313 758 313 q 900 384 846 313 q 953 553 953 454 q 852 797 953 705 q 585 889 751 889 q 302 774 413 889 q 192 482 192 660 q 300 188 192 294 q 599 81 409 81 q 761 110 690 81 q 900 204 833 139 l 1006 204 m 521 319 q 633 382 583 319 q 682 524 682 445 q 654 599 682 569 q 585 629 627 629 q 469 570 519 629 q 419 433 419 510 q 447 351 419 382 q 521 319 475 319 z "},"A":{"ha":810,"x_min":17,"x_max":793,"o":"m 554 267 l 245 267 l 158 0 l 17 0 l 336 926 l 473 926 l 793 0 l 642 0 l 554 267 m 515 383 l 400 733 l 285 383 l 515 383 z "},"B":{"ha":811,"x_min":126,"x_max":743,"o":"m 419 118 q 554 153 513 118 q 595 268 595 189 q 551 383 595 345 q 419 421 507 421 l 272 421 l 272 118 l 419 118 m 386 539 q 477 577 444 539 q 510 682 510 615 q 474 777 510 745 q 367 808 439 808 l 272 808 l 272 539 l 386 539 m 526 494 q 685 424 627 487 q 743 258 743 361 q 662 64 743 129 q 416 0 580 0 l 126 0 l 126 926 l 359 926 q 582 872 513 926 q 650 697 650 818 q 621 576 650 624 q 526 494 592 529 z "},"C":{"ha":692,"x_min":68,"x_max":692,"o":"m 612 778 q 543 813 579 802 q 464 825 507 825 q 289 728 353 825 q 225 463 225 631 q 288 198 225 293 q 464 103 351 103 q 546 117 507 103 q 628 161 585 131 l 692 71 q 580 5 637 26 q 450 -16 522 -16 q 177 121 286 -16 q 68 463 68 257 q 178 805 68 671 q 460 940 289 940 q 578 922 523 940 q 689 867 634 905 l 612 778 z "},"D":{"ha":840,"x_min":126,"x_max":772,"o":"m 383 125 q 557 216 492 125 q 623 463 623 308 q 557 709 623 617 q 383 802 492 802 l 272 802 l 272 125 l 383 125 m 390 0 l 126 0 l 126 926 l 372 926 q 667 804 562 926 q 772 463 772 682 q 665 130 772 259 q 390 0 557 0 z "},"E":{"ha":697,"x_min":126,"x_max":636,"o":"m 636 0 l 126 0 l 126 926 l 636 926 l 636 808 l 272 808 l 272 539 l 574 539 l 574 421 l 272 421 l 272 118 l 636 118 l 636 0 z "},"F":{"ha":667,"x_min":126,"x_max":636,"o":"m 126 0 l 126 926 l 636 926 l 636 808 l 272 808 l 272 539 l 574 539 l 574 421 l 272 421 l 272 0 l 126 0 z "},"G":{"ha":817,"x_min":68,"x_max":739,"o":"m 739 94 q 603 11 671 38 q 458 -16 534 -16 q 178 119 288 -16 q 68 463 68 254 q 177 804 68 668 q 450 940 287 940 q 595 916 532 940 q 721 838 659 892 l 647 751 q 556 808 598 791 q 464 825 514 825 q 289 728 353 825 q 225 463 225 631 q 292 196 225 293 q 473 98 359 98 q 546 110 514 98 q 603 144 577 121 l 603 401 l 416 401 l 416 519 l 739 519 l 739 94 z "},"H":{"ha":869,"x_min":126,"x_max":743,"o":"m 743 0 l 597 0 l 597 421 l 272 421 l 272 0 l 126 0 l 126 926 l 272 926 l 272 539 l 597 539 l 597 926 l 743 926 l 743 0 z "},"I":{"ha":399,"x_min":126,"x_max":272,"o":"m 126 926 l 272 926 l 272 0 l 126 0 l 126 926 z "},"J":{"ha":399,"x_min":-98,"x_max":272,"o":"m -98 -301 l -98 -179 q 68 -107 10 -172 q 126 72 126 -42 l 126 926 l 272 926 l 272 89 q 180 -203 272 -106 q -98 -301 87 -300 z "},"K":{"ha":766,"x_min":126,"x_max":766,"o":"m 272 461 l 272 0 l 126 0 l 126 926 l 272 926 l 272 521 l 590 926 l 757 926 l 415 493 l 766 0 l 591 0 l 272 461 z "},"L":{"ha":624,"x_min":126,"x_max":608,"o":"m 608 0 l 126 0 l 126 926 l 272 926 l 272 118 l 608 118 l 608 0 z "},"M":{"ha":1103,"x_min":78,"x_max":1025,"o":"m 553 378 l 764 926 l 932 926 l 1025 0 l 876 0 l 808 705 l 619 197 l 484 197 l 289 705 l 221 0 l 78 0 l 171 926 l 339 926 l 553 378 z "},"N":{"ha":922,"x_min":126,"x_max":796,"o":"m 126 0 l 126 926 l 290 926 l 650 253 l 650 926 l 796 926 l 796 0 l 635 0 l 272 682 l 272 0 l 126 0 z "},"O":{"ha":900,"x_min":68,"x_max":832,"o":"m 450 822 q 287 725 348 822 q 225 463 225 627 q 287 201 225 298 q 450 103 348 103 q 613 201 551 103 q 675 463 675 299 q 613 724 675 627 q 450 822 552 822 m 450 940 q 723 805 614 940 q 832 463 832 669 q 724 120 832 255 q 450 -16 615 -16 q 177 121 286 -16 q 68 463 68 257 q 177 804 68 668 q 450 940 286 940 z "},"P":{"ha":771,"x_min":126,"x_max":710,"o":"m 273 484 l 386 484 q 518 524 475 484 q 562 646 562 564 q 518 768 562 727 q 386 808 475 808 l 273 808 l 273 484 m 380 926 q 628 856 545 926 q 710 646 710 785 q 628 435 710 505 q 383 366 547 366 l 273 366 l 273 0 l 126 0 l 126 926 l 380 926 z "},"Q":{"ha":900,"x_min":68,"x_max":832,"o":"m 602 182 q 656 305 637 234 q 675 463 675 376 q 613 724 675 627 q 450 822 552 822 q 286 723 346 822 q 225 453 225 625 q 288 200 225 296 q 450 103 350 103 q 482 105 467 103 q 513 114 497 108 l 408 269 l 542 269 l 602 182 m 676 71 l 791 -106 l 659 -106 l 582 9 q 515 -9 548 -3 q 450 -16 483 -16 q 177 121 286 -16 q 68 463 68 257 q 177 804 68 668 q 450 940 286 940 q 723 805 614 940 q 832 463 832 669 q 793 241 832 339 q 676 71 754 144 z "},"R":{"ha":799,"x_min":126,"x_max":799,"o":"m 507 429 l 799 0 l 628 0 l 349 411 l 272 411 l 272 0 l 126 0 l 126 926 l 375 926 q 612 863 536 926 q 688 665 688 800 q 643 515 688 574 q 507 429 597 456 m 272 525 l 358 525 q 496 559 450 525 q 542 663 542 594 q 500 773 542 736 q 374 810 458 810 l 272 810 l 272 525 z "},"S":{"ha":739,"x_min":47,"x_max":677,"o":"m 103 191 q 225 125 167 145 q 349 106 283 106 q 478 144 431 106 q 525 252 525 183 q 494 335 525 300 q 404 390 464 370 l 315 421 q 117 525 172 468 q 62 677 62 583 q 145 875 62 801 q 367 949 229 949 q 506 928 438 949 q 640 864 573 907 l 585 761 q 477 807 532 791 q 370 823 422 823 q 255 788 296 823 q 215 686 215 752 q 240 618 215 646 q 318 572 264 590 l 408 543 q 617 426 557 494 q 677 249 677 359 q 587 59 677 134 q 353 -16 496 -16 q 195 7 269 -16 q 47 79 121 31 l 103 191 z "},"T":{"ha":682,"x_min":22,"x_max":660,"o":"m 22 926 l 660 926 l 660 808 l 414 808 l 414 0 l 268 0 l 268 808 l 22 808 l 22 926 z "},"U":{"ha":864,"x_min":113,"x_max":751,"o":"m 606 261 l 606 926 l 751 926 l 751 236 q 666 53 751 119 q 432 -14 581 -14 q 197 53 281 -14 q 113 236 113 119 l 113 926 l 258 926 l 258 261 q 302 144 258 183 q 432 104 345 104 q 562 144 518 104 q 606 261 606 183 z "},"V":{"ha":810,"x_min":17,"x_max":793,"o":"m 410 193 l 652 926 l 793 926 l 473 0 l 336 0 l 17 926 l 168 926 l 410 193 z "},"W":{"ha":1122,"x_min":17,"x_max":1105,"o":"m 561 509 l 396 0 l 248 0 l 17 926 l 165 926 l 332 193 l 503 729 l 621 729 l 790 193 l 970 926 l 1105 926 l 875 0 l 726 0 l 561 509 z "},"X":{"ha":764,"x_min":17,"x_max":747,"o":"m 382 378 l 170 0 l 17 0 l 306 494 l 53 926 l 205 926 l 387 611 l 564 926 l 711 926 l 458 494 l 747 0 l 595 0 l 382 378 z "},"Y":{"ha":747,"x_min":18,"x_max":730,"o":"m 301 359 l 18 926 l 172 926 l 376 515 l 583 926 l 730 926 l 447 359 l 447 0 l 301 0 l 301 359 z "},"Z":{"ha":685,"x_min":29,"x_max":650,"o":"m 57 926 l 629 926 l 629 810 l 184 118 l 650 118 l 650 0 l 29 0 l 29 119 l 473 808 l 57 808 l 57 926 z "},"[":{"ha":561,"x_min":210,"x_max":486,"o":"m 210 -328 l 210 926 l 486 926 l 486 839 l 349 839 l 349 -240 l 486 -240 l 486 -328 l 210 -328 z "},"\\":{"ha":497,"x_min":0,"x_max":503,"o":"m 503 0 l 375 0 l 0 926 l 127 926 l 503 0 z "},"]":{"ha":561,"x_min":74,"x_max":350,"o":"m 350 -328 l 74 -328 l 74 -240 l 211 -240 l 211 839 l 74 839 l 74 926 l 350 926 l 350 -328 z "},"^":{"ha":833,"x_min":100,"x_max":732,"o":"m 100 397 l 359 926 l 473 926 l 732 397 l 608 397 l 416 800 l 224 397 l 100 397 z "},"_":{"ha":604,"x_min":0,"x_max":604,"o":"m 0 -235 l 0 -104 l 604 -104 l 604 -235 l 0 -235 z "},"`":{"ha":694,"x_min":170,"x_max":403,"o":"m 403 806 l 301 806 l 170 1000 l 321 1000 l 403 806 z "},"a":{"ha":677,"x_min":52,"x_max":582,"o":"m 443 171 l 443 326 q 414 330 429 329 q 382 332 399 332 q 233 297 287 332 q 179 200 179 262 q 215 123 179 153 q 309 93 252 93 q 387 113 353 93 q 443 171 422 133 m 175 541 l 175 659 q 258 686 216 677 q 347 694 300 694 q 530 630 477 694 q 582 393 582 565 l 582 0 l 443 0 l 443 45 q 368 2 407 16 q 285 -12 329 -12 q 115 48 179 -12 q 52 211 52 109 q 135 372 52 315 q 372 429 218 429 q 406 429 389 429 q 443 427 422 428 l 443 458 q 416 556 443 528 q 326 583 390 583 q 249 573 286 583 q 175 541 212 562 z "},"b":{"ha":733,"x_min":109,"x_max":672,"o":"m 248 515 l 248 153 q 313 109 278 125 q 378 93 348 93 q 488 161 450 93 q 525 359 525 229 q 489 520 525 463 q 387 576 453 576 q 317 562 351 576 q 248 515 283 547 m 248 623 q 327 677 286 661 q 421 694 368 694 q 603 604 534 694 q 672 364 672 514 q 603 85 672 184 q 410 -14 534 -14 q 325 -1 366 -14 q 248 36 285 11 l 248 0 l 109 0 l 109 1000 l 248 1000 l 248 623 z "},"c":{"ha":585,"x_min":61,"x_max":585,"o":"m 585 78 q 480 8 533 29 q 359 -14 428 -14 q 144 84 227 -14 q 61 340 61 182 q 148 592 61 489 q 357 694 234 694 q 472 674 418 694 q 581 607 525 653 l 528 524 q 443 576 481 561 q 361 591 404 591 q 249 525 290 591 q 208 340 208 458 q 251 154 208 218 q 374 89 294 89 q 455 103 418 89 q 533 150 492 117 l 585 78 z "},"d":{"ha":733,"x_min":60,"x_max":624,"o":"m 485 58 q 405 3 446 20 q 311 -14 363 -14 q 129 76 197 -14 q 60 317 60 166 q 129 595 60 496 q 322 694 198 694 q 407 682 366 694 q 485 644 447 670 l 485 1000 l 624 1000 l 624 0 l 485 0 l 485 58 m 485 165 l 485 528 q 419 571 454 555 q 354 587 384 587 q 244 520 281 587 q 207 321 207 452 q 243 161 207 217 q 345 104 279 104 q 415 119 380 104 q 485 165 449 134 z "},"e":{"ha":701,"x_min":61,"x_max":640,"o":"m 621 96 q 495 13 558 39 q 359 -14 431 -14 q 143 84 225 -14 q 61 340 61 181 q 142 595 61 496 q 350 694 224 694 q 557 593 474 694 q 640 346 640 492 l 640 304 l 210 304 q 256 142 214 196 q 380 89 299 89 q 470 109 426 89 q 568 172 515 128 l 621 96 m 212 411 l 488 411 q 445 543 480 496 q 350 589 409 589 q 257 543 292 589 q 212 411 221 497 z "},"f":{"ha":452,"x_min":12,"x_max":475,"o":"m 441 884 q 399 899 418 894 q 366 904 380 904 q 297 866 319 904 q 275 747 275 827 l 275 681 l 440 681 l 440 576 l 275 576 l 275 0 l 136 0 l 136 576 l 12 576 l 12 681 l 136 681 l 136 750 q 189 943 136 872 q 334 1014 242 1014 q 402 1004 367 1014 q 475 975 437 995 l 441 884 z "},"g":{"ha":733,"x_min":60,"x_max":624,"o":"m 485 165 l 485 528 q 419 571 454 555 q 354 587 384 587 q 244 520 281 587 q 207 321 207 452 q 243 161 207 217 q 345 104 279 104 q 415 119 380 104 q 485 165 449 134 m 485 58 q 405 3 446 20 q 311 -14 363 -14 q 129 76 197 -14 q 60 317 60 166 q 129 595 60 496 q 322 694 198 694 q 407 682 366 694 q 485 644 447 670 l 485 681 l 624 681 l 624 -75 q 552 -277 624 -210 q 334 -345 479 -345 q 174 -299 236 -345 q 87 -164 112 -253 l 216 -164 q 264 -214 233 -197 q 338 -231 295 -231 q 448 -190 411 -231 q 485 -69 485 -150 l 485 58 z "},"h":{"ha":739,"x_min":109,"x_max":643,"o":"m 643 0 l 504 0 l 504 473 q 479 548 504 523 q 406 574 454 574 q 327 558 365 574 q 248 509 289 543 l 248 0 l 109 0 l 109 1000 l 248 1000 l 248 623 q 355 677 303 660 q 464 694 407 694 q 596 648 549 694 q 643 518 643 602 l 643 0 z "},"i":{"ha":355,"x_min":109,"x_max":248,"o":"m 109 1000 l 248 1000 l 248 817 l 109 817 l 109 1000 m 248 0 l 109 0 l 109 681 l 248 681 l 248 0 z "},"j":{"ha":355,"x_min":-94,"x_max":244,"o":"m 106 1000 l 244 1000 l 244 817 l 106 817 l 106 1000 m 244 681 l 244 -81 q 192 -274 244 -204 q 47 -345 139 -345 q -25 -335 10 -345 q -94 -306 -60 -325 l -60 -204 q -18 -220 -37 -214 q 16 -225 1 -225 q 84 -187 62 -225 q 106 -68 106 -149 l 106 681 l 244 681 z "},"k":{"ha":672,"x_min":109,"x_max":684,"o":"m 248 354 l 248 0 l 109 0 l 109 1000 l 248 1000 l 248 410 l 478 681 l 637 681 l 383 383 l 684 0 l 517 0 l 248 354 z "},"l":{"ha":386,"x_min":98,"x_max":397,"o":"m 397 12 q 339 -7 368 -1 q 279 -14 311 -14 q 140 40 182 -14 q 98 222 98 93 l 98 1000 l 237 1000 l 237 237 q 255 127 237 158 q 317 96 273 96 q 338 98 327 96 q 363 104 350 100 l 397 12 z "},"m":{"ha":1135,"x_min":109,"x_max":1039,"o":"m 643 510 l 643 0 l 504 0 l 504 473 q 479 548 504 522 q 406 574 454 574 q 330 558 368 574 q 248 510 292 543 l 248 0 l 109 0 l 109 681 l 248 681 l 248 623 q 355 677 303 660 q 464 694 407 694 q 559 674 519 694 q 623 612 599 653 q 743 675 686 656 q 860 694 800 694 q 992 648 945 694 q 1039 518 1039 602 l 1039 0 l 900 0 l 900 473 q 875 548 900 522 q 802 574 850 574 q 726 558 764 574 q 643 510 688 543 z "},"n":{"ha":739,"x_min":109,"x_max":643,"o":"m 643 0 l 504 0 l 504 473 q 479 548 504 523 q 406 574 454 574 q 327 558 365 574 q 248 509 289 543 l 248 0 l 109 0 l 109 681 l 248 681 l 248 623 q 355 677 303 660 q 464 694 407 694 q 596 648 549 694 q 643 518 643 602 l 643 0 z "},"o":{"ha":700,"x_min":61,"x_max":639,"o":"m 350 589 q 245 524 283 589 q 208 340 208 459 q 246 157 208 222 q 350 92 283 92 q 455 156 418 92 q 492 340 492 221 q 454 524 492 459 q 350 589 417 589 m 350 694 q 557 595 476 694 q 639 340 639 496 q 557 86 639 185 q 350 -14 476 -14 q 143 86 224 -14 q 61 340 61 185 q 142 595 61 496 q 350 694 224 694 z "},"p":{"ha":733,"x_min":109,"x_max":672,"o":"m 248 623 q 327 677 286 661 q 421 694 368 694 q 603 604 534 694 q 672 364 672 514 q 603 85 672 184 q 410 -14 534 -14 q 325 -1 366 -14 q 248 36 285 11 l 248 -326 l 109 -326 l 109 681 l 248 681 l 248 623 m 248 515 l 248 153 q 313 109 278 125 q 378 93 348 93 q 488 161 450 93 q 525 359 525 229 q 489 520 525 463 q 387 576 453 576 q 317 562 351 576 q 248 515 283 547 z "},"q":{"ha":733,"x_min":60,"x_max":624,"o":"m 485 165 l 485 528 q 419 571 454 555 q 354 587 384 587 q 244 520 281 587 q 207 321 207 452 q 243 161 207 217 q 345 104 279 104 q 415 119 380 104 q 485 165 449 134 m 485 58 q 405 3 446 20 q 311 -14 363 -14 q 129 76 197 -14 q 60 317 60 166 q 129 595 60 496 q 322 694 198 694 q 407 682 366 694 q 485 644 447 670 l 485 681 l 624 681 l 624 -326 l 485 -326 l 485 58 z "},"r":{"ha":481,"x_min":109,"x_max":492,"o":"m 248 484 l 248 0 l 109 0 l 109 681 l 248 681 l 248 603 l 290 640 q 348 680 322 669 q 406 692 374 692 q 447 685 425 692 q 492 664 468 678 l 447 542 q 414 550 430 547 q 379 553 397 553 q 311 537 341 553 q 248 484 280 521 z "},"s":{"ha":623,"x_min":39,"x_max":558,"o":"m 39 56 l 89 160 q 193 113 140 130 q 297 97 247 97 q 380 121 350 97 q 411 187 411 146 q 391 236 411 216 q 332 269 371 257 l 257 293 q 106 373 146 329 q 66 492 66 417 q 137 638 66 583 q 323 694 208 694 q 422 679 370 694 q 532 633 475 664 l 488 534 q 401 574 441 562 q 323 586 362 586 q 242 562 273 586 q 211 498 211 538 q 230 452 211 471 q 286 421 249 432 l 359 397 q 520 316 481 358 q 558 200 558 273 q 486 47 558 106 q 298 -11 414 -11 q 167 6 232 -11 q 39 56 102 22 z "},"t":{"ha":478,"x_min":16,"x_max":478,"o":"m 444 117 l 478 25 q 401 -4 440 5 q 323 -14 363 -14 q 181 39 224 -14 q 139 222 139 92 l 139 576 l 16 576 l 16 681 l 139 681 l 139 926 l 278 926 l 278 681 l 443 681 l 443 576 l 278 576 l 278 237 q 296 127 278 159 q 357 96 314 96 q 400 101 378 96 q 444 117 421 106 z "},"u":{"ha":739,"x_min":96,"x_max":631,"o":"m 96 681 l 235 681 l 235 207 q 260 132 235 157 q 334 107 285 107 q 412 123 374 107 q 492 172 450 138 l 492 681 l 631 681 l 631 0 l 492 0 l 492 58 q 384 4 436 21 q 275 -14 332 -14 q 142 32 189 -14 q 96 163 96 78 l 96 681 z "},"v":{"ha":643,"x_min":17,"x_max":627,"o":"m 17 681 l 160 681 l 325 207 l 497 681 l 627 681 l 370 0 l 273 0 l 17 681 z "},"w":{"ha":925,"x_min":17,"x_max":908,"o":"m 463 489 l 322 0 l 212 0 l 17 681 l 153 681 l 271 220 l 401 681 l 530 681 l 663 220 l 779 681 l 908 681 l 714 0 l 604 0 l 463 489 z "},"x":{"ha":667,"x_min":17,"x_max":650,"o":"m 408 372 l 650 0 l 494 0 l 328 273 l 161 0 l 17 0 l 254 372 l 53 681 l 208 681 l 334 472 l 458 681 l 603 681 l 408 372 z "},"y":{"ha":643,"x_min":17,"x_max":627,"o":"m 258 -20 l 17 681 l 160 681 l 325 172 l 497 681 l 627 681 l 376 -41 q 270 -235 331 -171 q 109 -329 210 -299 l 61 -239 q 189 -154 140 -208 q 258 -20 237 -100 z "},"z":{"ha":586,"x_min":37,"x_max":546,"o":"m 546 0 l 37 0 l 37 78 l 385 576 l 74 576 l 74 681 l 541 681 l 541 589 l 201 104 l 546 104 l 546 0 z "},"{":{"ha":463,"x_min":57,"x_max":433,"o":"m 433 1003 l 433 907 l 366 907 q 315 882 332 907 q 298 807 298 857 l 298 570 q 265 465 298 507 q 171 410 231 422 l 171 407 q 266 357 233 399 q 298 243 298 315 l 298 11 q 315 -64 298 -40 q 366 -89 332 -89 l 433 -89 l 433 -186 l 330 -186 q 216 -137 262 -186 q 170 -16 170 -89 l 170 222 q 138 319 170 281 q 57 360 107 357 l 57 456 q 138 496 107 460 q 170 587 170 532 l 170 833 q 216 955 170 906 q 330 1003 262 1003 l 433 1003 z "},"|":{"ha":317,"x_min":97,"x_max":220,"o":"m 97 -16 l 97 996 l 220 996 l 220 -16 l 97 -16 z "},"}":{"ha":463,"x_min":29,"x_max":406,"o":"m 29 1003 l 132 1003 q 247 955 200 1003 q 293 833 293 906 l 293 587 q 325 496 293 532 q 406 456 356 460 l 406 360 q 324 319 355 357 q 293 222 293 281 l 293 -16 q 247 -137 293 -89 q 132 -186 201 -186 l 29 -186 l 29 -89 l 97 -89 q 148 -64 131 -89 q 164 11 164 -40 l 164 243 q 197 357 164 315 q 292 407 229 399 l 292 410 q 198 465 231 422 q 164 570 164 507 l 164 807 q 148 882 164 857 q 97 907 131 907 l 29 907 l 29 1003 z "},"~":{"ha":972,"x_min":180,"x_max":793,"o":"m 746 576 l 793 478 q 720 392 760 420 q 632 364 680 364 q 476 409 578 364 q 343 454 374 454 q 289 433 315 454 q 228 358 262 412 l 180 457 q 257 545 219 519 q 345 571 295 571 q 504 526 404 571 q 631 481 605 481 q 677 498 654 481 q 746 576 700 515 z "},"Ä":{"ha":810,"x_min":17,"x_max":793,"o":"m 554 267 l 245 267 l 158 0 l 17 0 l 336 926 l 473 926 l 793 0 l 642 0 l 554 267 m 515 383 l 400 733 l 285 383 l 515 383 m 546 1208 q 602 1184 578 1208 q 625 1129 625 1161 q 602 1073 625 1097 q 546 1050 578 1050 q 490 1073 513 1050 q 467 1129 467 1097 q 490 1184 467 1160 q 546 1208 514 1208 m 265 1208 q 321 1184 297 1208 q 345 1129 345 1161 q 321 1073 345 1097 q 265 1050 297 1050 q 210 1073 233 1050 q 186 1129 186 1097 q 210 1184 186 1160 q 265 1208 233 1208 z "},"Å":{"ha":810,"x_min":17,"x_max":793,"o":"m 554 267 l 245 267 l 158 0 l 17 0 l 336 926 l 473 926 l 793 0 l 642 0 l 554 267 m 515 383 l 400 733 l 285 383 l 515 383 m 350 1149 q 367 1109 350 1126 q 406 1093 383 1093 q 445 1109 428 1093 q 461 1149 461 1126 q 445 1189 461 1173 q 406 1205 429 1205 q 366 1189 382 1205 q 350 1149 350 1173 m 290 1149 q 324 1231 290 1198 q 406 1265 357 1265 q 487 1231 454 1265 q 521 1149 521 1198 q 487 1067 521 1102 q 406 1033 453 1033 q 324 1067 358 1033 q 290 1149 290 1101 z "},"Ç":{"ha":692,"x_min":68,"x_max":692,"o":"m 612 778 q 543 813 579 802 q 464 825 507 825 q 289 728 353 825 q 225 463 225 631 q 288 198 225 293 q 464 103 351 103 q 546 117 507 103 q 628 161 585 131 l 692 71 q 591 10 642 31 q 486 -14 541 -11 l 427 -89 l 429 -92 q 453 -86 442 -88 q 475 -85 465 -85 q 557 -112 526 -85 q 589 -184 589 -140 q 539 -280 589 -244 q 407 -317 490 -317 q 341 -309 374 -317 q 281 -288 309 -302 l 307 -233 q 355 -249 332 -243 q 399 -254 378 -254 q 462 -240 440 -254 q 484 -197 484 -225 q 464 -156 484 -172 q 411 -140 444 -140 q 384 -143 398 -140 q 355 -153 370 -146 l 332 -123 l 416 -14 q 166 134 265 0 q 68 463 68 269 q 178 805 68 671 q 460 940 289 940 q 578 922 523 940 q 689 867 634 905 l 612 778 z "},"É":{"ha":697,"x_min":126,"x_max":636,"o":"m 636 0 l 126 0 l 126 926 l 636 926 l 636 808 l 272 808 l 272 539 l 574 539 l 574 421 l 272 421 l 272 118 l 636 118 l 636 0 m 314 1050 l 396 1246 l 547 1246 l 416 1050 l 314 1050 z "},"Ñ":{"ha":922,"x_min":126,"x_max":796,"o":"m 126 0 l 126 926 l 290 926 l 650 253 l 650 926 l 796 926 l 796 0 l 635 0 l 272 682 l 272 0 l 126 0 m 600 1204 l 665 1204 q 634 1089 665 1130 q 547 1048 604 1048 q 455 1076 517 1048 q 371 1104 394 1104 q 337 1089 349 1104 q 322 1046 326 1075 l 257 1046 q 296 1160 267 1122 q 378 1198 326 1198 q 469 1171 408 1198 q 553 1143 530 1143 q 587 1158 575 1143 q 600 1204 598 1173 z "},"Ö":{"ha":900,"x_min":68,"x_max":832,"o":"m 450 822 q 287 725 348 822 q 225 463 225 627 q 287 201 225 298 q 450 103 348 103 q 613 201 551 103 q 675 463 675 299 q 613 724 675 627 q 450 822 552 822 m 450 940 q 723 805 614 940 q 832 463 832 669 q 724 120 832 255 q 450 -16 615 -16 q 177 121 286 -16 q 68 463 68 257 q 177 804 68 668 q 450 940 286 940 m 591 1208 q 646 1184 623 1208 q 670 1129 670 1161 q 646 1073 670 1097 q 591 1050 623 1050 q 535 1073 558 1050 q 511 1129 511 1097 q 535 1184 511 1160 q 591 1208 559 1208 m 310 1208 q 366 1184 342 1208 q 389 1129 389 1161 q 366 1073 389 1097 q 310 1050 342 1050 q 254 1073 278 1050 q 231 1129 231 1097 q 254 1184 231 1160 q 310 1208 278 1208 z "},"Ü":{"ha":864,"x_min":113,"x_max":751,"o":"m 606 261 l 606 926 l 751 926 l 751 236 q 666 53 751 119 q 432 -14 581 -14 q 197 53 281 -14 q 113 236 113 119 l 113 926 l 258 926 l 258 261 q 302 144 258 183 q 432 104 345 104 q 562 144 518 104 q 606 261 606 183 m 572 1208 q 628 1184 604 1208 q 652 1129 652 1161 q 628 1073 652 1097 q 572 1050 604 1050 q 516 1073 540 1050 q 493 1129 493 1097 q 517 1184 493 1160 q 572 1208 541 1208 m 292 1208 q 347 1184 323 1208 q 371 1129 371 1161 q 347 1073 371 1097 q 292 1050 323 1050 q 236 1073 260 1050 q 212 1129 212 1097 q 236 1184 212 1160 q 292 1208 260 1208 z "},"á":{"ha":677,"x_min":52,"x_max":582,"o":"m 443 171 l 443 326 q 414 330 429 329 q 382 332 399 332 q 233 297 287 332 q 179 200 179 262 q 215 123 179 153 q 309 93 252 93 q 387 113 353 93 q 443 171 422 133 m 175 541 l 175 659 q 258 686 216 677 q 347 694 300 694 q 530 630 477 694 q 582 393 582 565 l 582 0 l 443 0 l 443 45 q 368 2 407 16 q 285 -12 329 -12 q 115 48 179 -12 q 52 211 52 109 q 135 372 52 315 q 372 429 218 429 q 406 429 389 429 q 443 427 422 428 l 443 458 q 416 556 443 528 q 326 583 390 583 q 249 573 286 583 q 175 541 212 562 m 283 804 l 366 1000 l 517 1000 l 385 804 l 283 804 z "},"à":{"ha":677,"x_min":52,"x_max":582,"o":"m 443 171 l 443 326 q 414 330 429 329 q 382 332 399 332 q 233 297 287 332 q 179 200 179 262 q 215 123 179 153 q 309 93 252 93 q 387 113 353 93 q 443 171 422 133 m 175 541 l 175 659 q 258 686 216 677 q 347 694 300 694 q 530 630 477 694 q 582 393 582 565 l 582 0 l 443 0 l 443 45 q 368 2 407 16 q 285 -12 329 -12 q 115 48 179 -12 q 52 211 52 109 q 135 372 52 315 q 372 429 218 429 q 406 429 389 429 q 443 427 422 428 l 443 458 q 416 556 443 528 q 326 583 390 583 q 249 573 286 583 q 175 541 212 562 m 395 806 l 293 806 l 161 1000 l 313 1000 l 395 806 z "},"â":{"ha":677,"x_min":52,"x_max":582,"o":"m 443 171 l 443 326 q 414 330 429 329 q 382 332 399 332 q 233 297 287 332 q 179 200 179 262 q 215 123 179 153 q 309 93 252 93 q 387 113 353 93 q 443 171 422 133 m 175 541 l 175 659 q 258 686 216 677 q 347 694 300 694 q 530 630 477 694 q 582 393 582 565 l 582 0 l 443 0 l 443 45 q 368 2 407 16 q 285 -12 329 -12 q 115 48 179 -12 q 52 211 52 109 q 135 372 52 315 q 372 429 218 429 q 406 429 389 429 q 443 427 422 428 l 443 458 q 416 556 443 528 q 326 583 390 583 q 249 573 286 583 q 175 541 212 562 m 396 1000 l 505 806 l 418 806 l 339 903 l 258 806 l 174 806 l 282 1000 l 396 1000 z "},"ä":{"ha":677,"x_min":52,"x_max":582,"o":"m 443 171 l 443 326 q 414 330 429 329 q 382 332 399 332 q 233 297 287 332 q 179 200 179 262 q 215 123 179 153 q 309 93 252 93 q 387 113 353 93 q 443 171 422 133 m 175 541 l 175 659 q 258 686 216 677 q 347 694 300 694 q 530 630 477 694 q 582 393 582 565 l 582 0 l 443 0 l 443 45 q 368 2 407 16 q 285 -12 329 -12 q 115 48 179 -12 q 52 211 52 109 q 135 372 52 315 q 372 429 218 429 q 406 429 389 429 q 443 427 422 428 l 443 458 q 416 556 443 528 q 326 583 390 583 q 249 573 286 583 q 175 541 212 562 m 479 962 q 535 939 511 962 q 559 884 559 916 q 535 828 559 851 q 479 804 511 804 q 424 828 447 804 q 400 884 400 851 q 424 939 400 915 q 479 962 448 962 m 199 962 q 254 939 231 962 q 278 884 278 916 q 254 828 278 851 q 199 804 231 804 q 143 828 167 804 q 119 884 119 851 q 143 939 119 915 q 199 962 167 962 z "},"ã":{"ha":677,"x_min":52,"x_max":582,"o":"m 443 171 l 443 326 q 414 330 429 329 q 382 332 399 332 q 233 297 287 332 q 179 200 179 262 q 215 123 179 153 q 309 93 252 93 q 387 113 353 93 q 443 171 422 133 m 175 541 l 175 659 q 258 686 216 677 q 347 694 300 694 q 530 630 477 694 q 582 393 582 565 l 582 0 l 443 0 l 443 45 q 368 2 407 16 q 285 -12 329 -12 q 115 48 179 -12 q 52 211 52 109 q 135 372 52 315 q 372 429 218 429 q 406 429 389 429 q 443 427 422 428 l 443 458 q 416 556 443 528 q 326 583 390 583 q 249 573 286 583 q 175 541 212 562 m 478 958 l 543 958 q 512 844 543 884 q 425 803 481 803 q 333 831 395 803 q 249 859 272 859 q 215 844 227 859 q 200 800 203 829 l 135 800 q 174 915 144 877 q 256 953 204 953 q 347 925 286 953 q 431 897 408 897 q 465 912 453 897 q 478 958 476 928 z "},"å":{"ha":677,"x_min":52,"x_max":582,"o":"m 443 171 l 443 326 q 414 330 429 329 q 382 332 399 332 q 233 297 287 332 q 179 200 179 262 q 215 123 179 153 q 309 93 252 93 q 387 113 353 93 q 443 171 422 133 m 175 541 l 175 659 q 258 686 216 677 q 347 694 300 694 q 530 630 477 694 q 582 393 582 565 l 582 0 l 443 0 l 443 45 q 368 2 407 16 q 285 -12 329 -12 q 115 48 179 -12 q 52 211 52 109 q 135 372 52 315 q 372 429 218 429 q 406 429 389 429 q 443 427 422 428 l 443 458 q 416 556 443 528 q 326 583 390 583 q 249 573 286 583 q 175 541 212 562 m 283 904 q 300 864 283 881 q 339 847 317 847 q 378 864 361 847 q 395 904 395 881 q 378 943 395 927 q 339 960 362 960 q 300 943 316 960 q 283 904 283 927 m 224 904 q 257 986 224 952 q 339 1019 291 1019 q 421 986 387 1019 q 454 904 454 952 q 420 822 454 857 q 339 787 387 787 q 258 822 292 787 q 224 904 224 856 z "},"ç":{"ha":585,"x_min":61,"x_max":585,"o":"m 404 -11 l 347 -85 l 350 -87 q 374 -82 363 -84 q 395 -81 385 -81 q 472 -106 443 -81 q 501 -175 501 -132 q 456 -266 501 -233 q 332 -300 410 -300 q 270 -293 301 -300 q 210 -273 239 -286 l 235 -221 q 281 -236 260 -231 q 321 -241 303 -241 q 381 -227 360 -241 q 401 -184 401 -212 q 385 -147 401 -161 q 339 -134 369 -134 q 314 -136 328 -134 q 281 -144 300 -139 l 258 -117 l 339 -11 q 136 94 211 -1 q 61 340 61 189 q 148 592 61 489 q 357 694 234 694 q 472 674 418 694 q 581 607 525 653 l 528 524 q 443 576 481 561 q 361 591 404 591 q 249 525 290 591 q 208 340 208 458 q 251 154 208 218 q 374 89 294 89 q 455 103 418 89 q 533 150 492 117 l 585 78 q 497 16 542 38 q 404 -11 453 -6 z "},"é":{"ha":701,"x_min":61,"x_max":640,"o":"m 621 96 q 495 13 558 39 q 359 -14 431 -14 q 143 84 225 -14 q 61 340 61 181 q 142 595 61 496 q 350 694 224 694 q 557 593 474 694 q 640 346 640 492 l 640 304 l 210 304 q 256 142 214 196 q 380 89 299 89 q 470 109 426 89 q 568 172 515 128 l 621 96 m 212 411 l 488 411 q 445 543 480 496 q 350 589 409 589 q 257 543 292 589 q 212 411 221 497 m 296 804 l 378 1000 l 529 1000 l 397 804 l 296 804 z "},"è":{"ha":701,"x_min":61,"x_max":640,"o":"m 621 96 q 495 13 558 39 q 359 -14 431 -14 q 143 84 225 -14 q 61 340 61 181 q 142 595 61 496 q 350 694 224 694 q 557 593 474 694 q 640 346 640 492 l 640 304 l 210 304 q 256 142 214 196 q 380 89 299 89 q 470 109 426 89 q 568 172 515 128 l 621 96 m 212 411 l 488 411 q 445 543 480 496 q 350 589 409 589 q 257 543 292 589 q 212 411 221 497 m 407 806 l 305 806 l 174 1000 l 325 1000 l 407 806 z "},"ê":{"ha":701,"x_min":61,"x_max":640,"o":"m 621 96 q 495 13 558 39 q 359 -14 431 -14 q 143 84 225 -14 q 61 340 61 181 q 142 595 61 496 q 350 694 224 694 q 557 593 474 694 q 640 346 640 492 l 640 304 l 210 304 q 256 142 214 196 q 380 89 299 89 q 470 109 426 89 q 568 172 515 128 l 621 96 m 212 411 l 488 411 q 445 543 480 496 q 350 589 409 589 q 257 543 292 589 q 212 411 221 497 m 408 1000 l 517 806 l 431 806 l 351 903 l 271 806 l 186 806 l 294 1000 l 408 1000 z "},"ë":{"ha":701,"x_min":61,"x_max":640,"o":"m 621 96 q 495 13 558 39 q 359 -14 431 -14 q 143 84 225 -14 q 61 340 61 181 q 142 595 61 496 q 350 694 224 694 q 557 593 474 694 q 640 346 640 492 l 640 304 l 210 304 q 256 142 214 196 q 380 89 299 89 q 470 109 426 89 q 568 172 515 128 l 621 96 m 212 411 l 488 411 q 445 543 480 496 q 350 589 409 589 q 257 543 292 589 q 212 411 221 497 m 492 962 q 547 939 524 962 q 571 884 571 916 q 547 828 571 851 q 492 804 524 804 q 436 828 459 804 q 412 884 412 851 q 436 939 412 915 q 492 962 460 962 m 211 962 q 267 939 243 962 q 290 884 290 916 q 267 828 290 851 q 211 804 243 804 q 155 828 179 804 q 132 884 132 851 q 155 939 132 915 q 211 962 179 962 z "},"í":{"ha":355,"x_min":109,"x_max":355,"o":"m 248 0 l 109 0 l 109 681 l 248 681 l 248 0 m 122 804 l 204 1000 l 355 1000 l 224 804 l 122 804 z "},"ì":{"ha":355,"x_min":0,"x_max":248,"o":"m 248 0 l 109 0 l 109 681 l 248 681 l 248 0 m 233 806 l 132 806 l 0 1000 l 151 1000 l 233 806 z "},"î":{"ha":355,"x_min":12,"x_max":343,"o":"m 248 0 l 109 0 l 109 681 l 248 681 l 248 0 m 235 1000 l 343 806 l 257 806 l 178 903 l 97 806 l 12 806 l 121 1000 l 235 1000 z "},"ï":{"ha":355,"x_min":-42,"x_max":397,"o":"m 248 0 l 109 0 l 109 681 l 248 681 l 248 0 m 318 962 q 374 939 350 962 q 397 884 397 916 q 374 828 397 851 q 318 804 350 804 q 262 828 286 804 q 239 884 239 851 q 262 939 239 915 q 318 962 286 962 m 37 962 q 93 939 69 962 q 117 884 117 916 q 93 828 117 851 q 37 804 69 804 q -18 828 5 804 q -42 884 -42 851 q -18 939 -42 915 q 37 962 5 962 z "},"ñ":{"ha":739,"x_min":109,"x_max":643,"o":"m 643 0 l 504 0 l 504 473 q 479 548 504 523 q 406 574 454 574 q 327 558 365 574 q 248 509 289 543 l 248 0 l 109 0 l 109 681 l 248 681 l 248 623 q 355 677 303 660 q 464 694 407 694 q 596 648 549 694 q 643 518 643 602 l 643 0 m 521 958 l 586 958 q 555 844 586 884 q 468 803 524 803 q 376 831 437 803 q 292 859 315 859 q 258 844 270 859 q 243 800 246 829 l 178 800 q 217 915 187 877 q 298 953 247 953 q 390 925 329 953 q 473 897 450 897 q 507 912 496 897 q 521 958 519 928 z "},"ó":{"ha":700,"x_min":61,"x_max":639,"o":"m 350 589 q 245 524 283 589 q 208 340 208 459 q 246 157 208 222 q 350 92 283 92 q 455 156 418 92 q 492 340 492 221 q 454 524 492 459 q 350 589 417 589 m 350 694 q 557 595 476 694 q 639 340 639 496 q 557 86 639 185 q 350 -14 476 -14 q 143 86 224 -14 q 61 340 61 185 q 142 595 61 496 q 350 694 224 694 m 294 804 l 376 1000 l 528 1000 l 396 804 l 294 804 z "},"ò":{"ha":700,"x_min":61,"x_max":639,"o":"m 350 589 q 245 524 283 589 q 208 340 208 459 q 246 157 208 222 q 350 92 283 92 q 455 156 418 92 q 492 340 492 221 q 454 524 492 459 q 350 589 417 589 m 350 694 q 557 595 476 694 q 639 340 639 496 q 557 86 639 185 q 350 -14 476 -14 q 143 86 224 -14 q 61 340 61 185 q 142 595 61 496 q 350 694 224 694 m 406 806 l 304 806 l 172 1000 l 323 1000 l 406 806 z "},"ô":{"ha":700,"x_min":61,"x_max":639,"o":"m 350 589 q 245 524 283 589 q 208 340 208 459 q 246 157 208 222 q 350 92 283 92 q 455 156 418 92 q 492 340 492 221 q 454 524 492 459 q 350 589 417 589 m 350 694 q 557 595 476 694 q 639 340 639 496 q 557 86 639 185 q 350 -14 476 -14 q 143 86 224 -14 q 61 340 61 185 q 142 595 61 496 q 350 694 224 694 m 407 1000 l 515 806 l 429 806 l 350 903 l 269 806 l 184 806 l 293 1000 l 407 1000 z "},"ö":{"ha":700,"x_min":61,"x_max":639,"o":"m 350 589 q 245 524 283 589 q 208 340 208 459 q 246 157 208 222 q 350 92 283 92 q 455 156 418 92 q 492 340 492 221 q 454 524 492 459 q 350 589 417 589 m 350 694 q 557 595 476 694 q 639 340 639 496 q 557 86 639 185 q 350 -14 476 -14 q 143 86 224 -14 q 61 340 61 185 q 142 595 61 496 q 350 694 224 694 m 490 962 q 546 939 522 962 q 570 884 570 916 q 546 828 570 851 q 490 804 522 804 q 434 828 458 804 q 411 884 411 851 q 435 939 411 915 q 490 962 458 962 m 210 962 q 265 939 241 962 q 289 884 289 916 q 265 828 289 851 q 210 804 241 804 q 154 828 178 804 q 130 884 130 851 q 154 939 130 915 q 210 962 178 962 z "},"õ":{"ha":700,"x_min":61,"x_max":639,"o":"m 350 589 q 245 524 283 589 q 208 340 208 459 q 246 157 208 222 q 350 92 283 92 q 455 156 418 92 q 492 340 492 221 q 454 524 492 459 q 350 589 417 589 m 350 694 q 557 595 476 694 q 639 340 639 496 q 557 86 639 185 q 350 -14 476 -14 q 143 86 224 -14 q 61 340 61 185 q 142 595 61 496 q 350 694 224 694 m 489 958 l 554 958 q 523 844 554 884 q 436 803 492 803 q 344 831 406 803 q 260 859 283 859 q 226 844 238 859 q 211 800 214 829 l 146 800 q 185 915 155 877 q 267 953 215 953 q 358 925 297 953 q 441 897 418 897 q 475 912 464 897 q 489 958 487 928 z "},"ú":{"ha":739,"x_min":96,"x_max":631,"o":"m 96 681 l 235 681 l 235 207 q 260 132 235 157 q 334 107 285 107 q 412 123 374 107 q 492 172 450 138 l 492 681 l 631 681 l 631 0 l 492 0 l 492 58 q 384 4 436 21 q 275 -14 332 -14 q 142 32 189 -14 q 96 163 96 78 l 96 681 m 309 804 l 391 1000 l 542 1000 l 410 804 l 309 804 z "},"ù":{"ha":739,"x_min":96,"x_max":631,"o":"m 96 681 l 235 681 l 235 207 q 260 132 235 157 q 334 107 285 107 q 412 123 374 107 q 492 172 450 138 l 492 681 l 631 681 l 631 0 l 492 0 l 492 58 q 384 4 436 21 q 275 -14 332 -14 q 142 32 189 -14 q 96 163 96 78 l 96 681 m 420 806 l 318 806 l 186 1000 l 338 1000 l 420 806 z "},"û":{"ha":739,"x_min":96,"x_max":631,"o":"m 96 681 l 235 681 l 235 207 q 260 132 235 157 q 334 107 285 107 q 412 123 374 107 q 492 172 450 138 l 492 681 l 631 681 l 631 0 l 492 0 l 492 58 q 384 4 436 21 q 275 -14 332 -14 q 142 32 189 -14 q 96 163 96 78 l 96 681 m 421 1000 l 530 806 l 444 806 l 364 903 l 283 806 l 199 806 l 307 1000 l 421 1000 z "},"ü":{"ha":739,"x_min":96,"x_max":631,"o":"m 96 681 l 235 681 l 235 207 q 260 132 235 157 q 334 107 285 107 q 412 123 374 107 q 492 172 450 138 l 492 681 l 631 681 l 631 0 l 492 0 l 492 58 q 384 4 436 21 q 275 -14 332 -14 q 142 32 189 -14 q 96 163 96 78 l 96 681 m 505 962 q 560 939 536 962 q 584 884 584 916 q 560 828 584 851 q 505 804 536 804 q 449 828 472 804 q 425 884 425 851 q 449 939 425 915 q 505 962 473 962 m 224 962 q 279 939 256 962 q 303 884 303 916 q 279 828 303 851 q 224 804 256 804 q 168 828 192 804 q 144 884 144 851 q 168 939 144 915 q 224 962 192 962 z "},"°":{"ha":564,"x_min":82,"x_max":484,"o":"m 170 742 q 202 662 170 695 q 282 629 235 629 q 362 663 329 629 q 396 742 396 696 q 362 822 396 789 q 282 856 329 856 q 202 822 235 856 q 170 742 170 789 m 82 742 q 141 884 82 825 q 282 943 199 943 q 425 884 366 943 q 484 742 484 825 q 424 601 484 659 q 282 542 365 542 q 140 600 199 542 q 82 742 82 659 z "},"¢":{"ha":815,"x_min":103,"x_max":679,"o":"m 385 98 l 385 586 q 289 499 324 566 q 253 340 253 433 q 286 181 253 242 q 385 98 319 121 m 485 -12 l 485 -117 l 385 -117 l 385 -11 q 178 101 252 7 q 103 340 103 195 q 183 576 103 475 q 385 692 264 676 l 385 781 l 485 781 l 485 692 q 581 667 534 688 q 675 607 627 646 l 616 524 q 550 567 582 552 q 485 585 518 582 l 485 92 q 557 109 524 95 q 623 150 590 123 l 679 78 q 590 17 637 39 q 485 -12 543 -5 z "},"£":{"ha":815,"x_min":109,"x_max":728,"o":"m 728 125 l 728 0 l 126 0 l 126 111 q 247 163 207 119 q 286 292 286 208 q 281 352 286 320 q 265 425 276 383 l 109 425 l 109 536 l 239 536 q 219 604 225 570 q 212 677 212 638 q 292 870 212 796 q 498 945 371 945 q 605 926 554 945 q 704 869 656 907 l 642 768 q 575 804 608 792 q 511 815 543 815 q 404 774 442 815 q 366 661 366 734 q 370 606 366 636 q 386 536 375 576 l 652 536 l 652 425 l 408 425 q 425 351 420 386 q 431 286 431 316 q 416 203 431 240 q 370 125 402 165 l 728 125 z "},"•":{"ha":586,"x_min":78,"x_max":509,"o":"m 78 441 q 141 594 78 530 q 293 657 204 657 q 445 594 382 657 q 509 441 509 530 q 446 291 509 353 q 293 228 382 228 q 141 290 204 228 q 78 441 78 353 z "},"¶":{"ha":890,"x_min":69,"x_max":751,"o":"m 359 -153 l 359 444 q 148 509 226 446 q 69 681 69 573 q 148 865 69 804 q 385 926 227 926 l 751 926 l 751 -153 l 631 -153 l 631 829 l 481 829 l 481 -153 l 359 -153 z "},"ß":{"ha":812,"x_min":98,"x_max":751,"o":"m 237 0 l 98 0 l 98 642 q 181 922 98 828 q 429 1015 264 1015 q 629 942 550 1015 q 708 758 708 869 q 667 616 708 673 q 546 536 626 560 l 546 533 q 694 454 637 522 q 751 289 751 387 q 668 75 751 157 q 453 -8 585 -8 q 392 -4 423 -8 q 326 9 361 1 l 326 123 q 379 107 354 112 q 431 102 404 102 q 557 154 509 102 q 606 290 606 205 q 545 426 606 381 q 361 471 484 471 l 361 581 l 366 581 q 510 623 461 581 q 559 747 559 665 q 521 862 559 819 q 415 904 482 904 q 284 841 330 904 q 237 661 237 778 l 237 0 z "},"®":{"ha":1111,"x_min":54,"x_max":1057,"o":"m 54 485 q 92 676 54 585 q 203 840 130 768 q 365 948 273 911 q 555 986 456 986 q 747 948 655 986 q 909 839 839 910 q 1019 676 981 768 q 1057 485 1057 585 q 1031 325 1057 402 q 953 180 1004 248 q 777 35 881 87 q 555 -17 673 -17 q 394 10 472 -17 q 252 87 317 37 q 106 263 157 159 q 54 485 54 368 m 151 485 q 270 199 151 317 q 555 81 388 81 q 710 112 636 81 q 842 200 784 142 q 929 331 899 257 q 960 485 960 404 q 938 614 960 551 q 876 730 917 677 q 734 847 818 806 q 555 889 650 889 q 270 771 388 889 q 151 485 151 652 m 473 681 l 473 526 l 561 526 q 646 544 621 526 q 672 600 672 561 q 645 661 672 641 q 562 681 618 681 l 473 681 m 374 216 l 374 757 l 574 757 q 724 717 673 757 q 774 599 774 677 q 738 497 774 534 q 632 453 703 460 l 777 216 l 673 216 l 534 449 l 473 449 l 473 216 l 374 216 z "},"©":{"ha":1111,"x_min":54,"x_max":1057,"o":"m 151 485 q 270 199 151 317 q 555 81 388 81 q 710 112 636 81 q 842 200 784 142 q 929 331 899 257 q 960 485 960 404 q 938 614 960 551 q 876 730 917 677 q 734 847 818 806 q 555 889 650 889 q 270 771 388 889 q 151 485 151 652 m 54 485 q 92 676 54 585 q 203 840 130 768 q 365 948 273 911 q 555 986 456 986 q 747 948 655 986 q 909 839 839 910 q 1019 676 981 768 q 1057 485 1057 585 q 1031 325 1057 402 q 953 180 1004 248 q 777 35 881 87 q 555 -17 673 -17 q 394 10 472 -17 q 252 87 317 37 q 106 263 157 159 q 54 485 54 368 m 700 400 l 798 400 q 718 251 781 307 q 567 195 654 195 q 371 275 447 195 q 296 485 296 356 q 369 693 296 614 q 562 772 442 772 q 721 719 657 772 q 798 575 785 665 l 700 575 q 653 652 690 624 q 564 681 617 681 q 441 630 485 681 q 397 488 397 579 q 444 341 397 397 q 567 286 491 286 q 656 316 621 286 q 700 400 692 347 z "},"™":{"ha":1375,"x_min":47,"x_max":1272,"o":"m 644 349 l 644 926 l 808 926 l 960 536 l 1108 926 l 1272 926 l 1272 349 l 1166 349 l 1166 790 l 1164 790 l 1002 349 l 916 349 l 753 790 l 750 790 l 750 349 l 644 349 m 225 349 l 225 829 l 47 829 l 47 926 l 509 926 l 509 829 l 330 829 l 330 349 l 225 349 z "},"´":{"ha":694,"x_min":292,"x_max":525,"o":"m 292 804 l 374 1000 l 525 1000 l 393 804 l 292 804 z "},"¨":{"ha":694,"x_min":127,"x_max":567,"o":"m 488 962 q 543 939 519 962 q 567 884 567 916 q 543 828 567 851 q 488 804 519 804 q 432 828 455 804 q 408 884 408 851 q 432 939 408 915 q 488 962 456 962 m 207 962 q 262 939 239 962 q 286 884 286 916 q 262 828 286 851 q 207 804 239 804 q 151 828 175 804 q 127 884 127 851 q 151 939 127 915 q 207 962 175 962 z "},"Æ":{"ha":1162,"x_min":0,"x_max":1101,"o":"m 591 383 l 591 703 l 392 383 l 591 383 m 593 926 l 1101 926 l 1101 808 l 737 808 l 737 539 l 1039 539 l 1039 421 l 737 421 l 737 118 l 1101 118 l 1101 0 l 591 0 l 591 267 l 318 267 l 151 0 l 0 0 l 593 926 z "},"Ø":{"ha":900,"x_min":68,"x_max":832,"o":"m 648 646 l 300 182 q 366 123 328 143 q 450 103 404 103 q 613 201 551 103 q 675 463 675 299 q 668 561 675 515 q 648 646 662 606 m 600 743 q 534 802 572 782 q 450 822 496 822 q 287 725 348 822 q 225 463 225 627 q 232 360 225 407 q 252 279 239 313 l 600 743 m 745 772 q 810 634 787 713 q 832 463 832 555 q 724 120 832 255 q 450 -16 615 -16 q 324 8 382 -16 q 220 77 266 31 l 150 -17 l 72 43 l 155 153 q 90 295 112 218 q 68 463 68 372 q 177 804 68 668 q 450 940 286 940 q 574 918 517 940 q 681 848 631 895 l 750 942 l 828 882 l 745 772 z "},"∞":{"ha":1274,"x_min":100,"x_max":1174,"o":"m 644 528 q 763 669 699 625 q 914 714 828 714 q 1103 633 1033 714 q 1174 412 1174 551 q 1102 180 1174 263 q 901 97 1031 97 q 740 143 807 97 q 629 283 673 189 q 512 144 581 192 q 359 97 444 97 q 172 181 244 97 q 100 400 100 266 q 175 629 100 543 q 376 714 250 714 q 534 668 468 714 q 644 528 601 622 m 602 454 q 506 563 559 526 q 387 599 452 599 q 253 546 301 599 q 205 400 205 494 q 244 260 205 307 q 358 212 283 212 q 495 272 435 212 q 602 454 555 332 m 672 358 q 767 251 709 289 q 893 212 825 212 q 1023 264 978 212 q 1068 412 1068 315 q 1030 552 1068 505 q 916 599 991 599 q 792 555 840 599 q 672 358 743 511 z "},"¥":{"ha":815,"x_min":47,"x_max":762,"o":"m 568 539 l 722 539 l 722 440 l 518 440 l 478 359 l 478 298 l 722 298 l 722 200 l 478 200 l 478 0 l 332 0 l 332 200 l 87 200 l 87 298 l 332 298 l 332 359 l 292 440 l 87 440 l 87 539 l 241 539 l 47 926 l 201 926 l 407 515 l 614 926 l 762 926 l 568 539 z "},"ª":{"ha":525,"x_min":52,"x_max":415,"o":"m 309 600 l 309 692 q 290 694 299 693 q 269 694 281 694 q 181 675 212 694 q 151 619 151 656 q 171 572 151 591 q 222 554 191 554 q 267 565 245 554 q 309 600 288 576 m 129 918 q 192 935 161 929 q 250 940 222 940 q 377 897 338 940 q 415 753 415 854 l 415 485 l 311 485 l 311 518 q 264 488 290 498 q 205 478 237 478 q 93 518 134 478 q 52 625 52 557 q 103 730 52 696 q 260 765 155 765 q 283 765 271 765 q 309 764 295 764 l 309 770 q 291 838 309 817 q 232 859 273 859 q 182 852 208 859 q 129 832 157 845 l 129 918 z "},"º":{"ha":532,"x_min":61,"x_max":454,"o":"m 258 861 q 195 823 216 861 q 174 708 174 784 q 195 595 174 633 q 258 557 216 557 q 321 594 300 557 q 342 708 342 631 q 321 823 342 785 q 258 861 300 861 m 258 940 q 400 876 346 940 q 454 708 454 812 q 400 542 454 606 q 258 478 345 478 q 116 543 172 478 q 61 708 61 607 q 116 875 61 810 q 258 940 172 940 z "},"æ":{"ha":1074,"x_min":52,"x_max":1013,"o":"m 585 411 l 860 411 q 817 543 852 496 q 722 589 781 589 q 628 542 665 589 q 585 411 592 495 m 433 328 q 394 331 408 330 q 372 332 380 332 q 230 297 281 332 q 179 200 179 262 q 215 122 179 152 q 311 93 251 93 q 400 119 361 93 q 457 191 439 145 q 440 253 446 219 q 433 328 435 286 m 538 618 q 622 676 577 658 q 722 694 666 694 q 929 594 846 694 q 1013 347 1013 494 l 1013 304 l 582 304 q 628 143 586 197 q 751 90 671 90 q 843 110 798 90 q 940 172 888 129 l 993 96 q 866 13 928 39 q 733 -14 804 -14 q 605 13 660 -14 q 509 94 549 39 q 411 15 466 41 q 292 -12 357 -12 q 117 47 182 -12 q 52 204 52 106 q 134 373 52 315 q 374 431 216 431 q 439 428 395 431 l 443 428 l 443 458 q 416 556 443 528 q 326 583 390 583 q 250 573 286 583 q 175 541 213 562 l 175 659 q 259 686 217 677 q 349 694 302 694 q 465 675 417 694 q 538 618 512 656 z "},"ø":{"ha":700,"x_min":61,"x_max":639,"o":"m 256 142 q 297 104 274 116 q 350 92 319 92 q 455 156 418 92 q 492 340 492 221 q 489 401 492 374 q 482 444 486 429 l 256 142 m 216 239 l 443 541 q 403 576 427 564 q 350 589 379 589 q 245 524 282 589 q 208 340 208 460 q 210 289 208 315 q 216 239 212 264 m 183 46 l 135 -18 l 64 36 l 122 114 q 76 219 92 163 q 61 340 61 275 q 142 595 61 496 q 350 694 224 694 q 440 680 399 694 q 515 636 481 665 l 564 700 l 635 647 l 576 568 q 623 464 608 522 q 639 340 639 407 q 557 86 639 186 q 350 -14 475 -14 q 258 2 302 -14 q 183 46 215 17 z "},"¿":{"ha":629,"x_min":33,"x_max":575,"o":"m 399 681 l 399 525 l 250 525 l 250 681 l 399 681 m 250 408 l 399 408 q 376 255 399 313 q 296 139 354 196 l 258 103 q 245 90 254 98 q 180 -25 180 26 q 215 -97 180 -68 q 304 -126 250 -126 q 397 -99 357 -126 q 465 -20 437 -73 l 575 -81 q 462 -210 529 -168 q 304 -253 395 -253 q 105 -195 176 -253 q 33 -33 33 -137 q 136 163 33 62 l 143 171 l 186 215 q 235 292 220 250 q 250 408 249 334 z "},"¡":{"ha":421,"x_min":132,"x_max":288,"o":"m 132 681 l 288 681 l 288 525 l 132 525 l 132 681 m 288 -245 l 132 -245 l 132 60 l 178 431 l 241 431 l 288 60 l 288 -245 z "},"¬":{"ha":972,"x_min":150,"x_max":821,"o":"m 150 416 l 150 536 l 821 536 l 821 139 l 701 139 l 701 416 l 150 416 z "},"«":{"ha":643,"x_min":69,"x_max":553,"o":"m 281 158 l 69 325 l 69 447 l 281 614 l 281 494 l 142 386 l 281 278 l 281 158 m 553 158 l 342 325 l 342 447 l 553 614 l 553 494 l 414 386 l 553 278 l 553 158 z "},"»":{"ha":643,"x_min":69,"x_max":553,"o":"m 342 158 l 342 278 l 481 386 l 342 494 l 342 614 l 553 447 l 553 325 l 342 158 m 69 158 l 69 278 l 208 386 l 69 494 l 69 614 l 281 447 l 281 325 l 69 158 z "},"…":{"ha":1389,"x_min":154,"x_max":1235,"o":"m 1079 0 l 1079 155 l 1235 155 l 1235 0 l 1079 0 m 616 0 l 616 155 l 772 155 l 772 0 l 616 0 m 154 0 l 154 155 l 310 155 l 310 0 l 154 0 z "},"À":{"ha":810,"x_min":17,"x_max":793,"o":"m 554 267 l 245 267 l 158 0 l 17 0 l 336 926 l 473 926 l 793 0 l 642 0 l 554 267 m 515 383 l 400 733 l 285 383 l 515 383 m 461 1051 l 359 1051 l 228 1246 l 379 1246 l 461 1051 z "},"Ã":{"ha":810,"x_min":17,"x_max":793,"o":"m 554 267 l 245 267 l 158 0 l 17 0 l 336 926 l 473 926 l 793 0 l 642 0 l 554 267 m 515 383 l 400 733 l 285 383 l 515 383 m 545 1204 l 610 1204 q 579 1089 610 1130 q 492 1048 548 1048 q 400 1076 461 1048 q 315 1104 338 1104 q 282 1089 294 1104 q 267 1046 270 1075 l 201 1046 q 241 1160 211 1122 q 322 1198 271 1198 q 413 1171 353 1198 q 497 1143 474 1143 q 531 1158 519 1143 q 545 1204 543 1173 z "},"Õ":{"ha":900,"x_min":68,"x_max":832,"o":"m 450 822 q 287 725 348 822 q 225 463 225 627 q 287 201 225 298 q 450 103 348 103 q 613 201 551 103 q 675 463 675 299 q 613 724 675 627 q 450 822 552 822 m 450 940 q 723 805 614 940 q 832 463 832 669 q 724 120 832 255 q 450 -16 615 -16 q 177 121 286 -16 q 68 463 68 257 q 177 804 68 668 q 450 940 286 940 m 589 1204 l 654 1204 q 624 1089 654 1130 q 536 1048 593 1048 q 445 1076 506 1048 q 360 1104 383 1104 q 327 1089 338 1104 q 311 1046 315 1075 l 246 1046 q 286 1160 256 1122 q 367 1198 315 1198 q 458 1171 397 1198 q 542 1143 519 1143 q 576 1158 564 1143 q 589 1204 587 1173 z "},"Œ":{"ha":1140,"x_min":68,"x_max":1079,"o":"m 457 125 l 570 125 l 570 802 l 457 802 q 283 709 349 802 q 218 463 218 617 q 283 217 218 309 q 457 125 349 125 m 450 0 q 176 131 284 0 q 68 463 68 261 q 173 805 68 683 q 468 926 278 926 l 1079 926 l 1079 808 l 715 808 l 715 539 l 1017 539 l 1017 421 l 715 421 l 715 118 l 1079 118 l 1079 0 l 450 0 z "},"œ":{"ha":1128,"x_min":61,"x_max":1067,"o":"m 639 411 l 914 411 q 871 543 907 496 q 777 589 835 589 q 683 543 719 589 q 639 411 647 497 m 350 589 q 245 524 283 589 q 208 340 208 459 q 246 157 208 222 q 350 92 283 92 q 455 156 418 92 q 492 340 492 221 q 454 524 492 459 q 350 589 417 589 m 562 586 q 657 668 604 641 q 777 694 709 694 q 983 594 900 694 q 1067 346 1067 493 l 1067 304 l 636 304 q 683 143 640 197 q 807 89 726 89 q 897 109 852 89 q 994 172 942 129 l 1047 96 q 920 12 982 38 q 787 -14 859 -14 q 659 13 714 -14 q 562 94 604 39 q 469 13 522 40 q 350 -14 416 -14 q 143 86 224 -14 q 61 340 61 185 q 143 595 61 495 q 350 694 224 694 q 472 666 418 694 q 562 586 527 638 z "},"–":{"ha":694,"x_min":0,"x_max":694,"o":"m 0 314 l 0 444 l 694 444 l 694 314 l 0 314 z "},"—":{"ha":1389,"x_min":0,"x_max":1389,"o":"m 0 314 l 0 444 l 1389 444 l 1389 314 l 0 314 z "},"“":{"ha":578,"x_min":71,"x_max":507,"o":"m 289 926 l 211 621 l 71 621 l 189 926 l 289 926 m 507 926 l 428 621 l 290 621 l 407 926 l 507 926 z "},"”":{"ha":578,"x_min":71,"x_max":507,"o":"m 289 621 l 367 926 l 507 926 l 389 621 l 289 621 m 71 621 l 150 926 l 290 926 l 171 621 l 71 621 z "},"‘":{"ha":361,"x_min":71,"x_max":290,"o":"m 290 926 l 211 621 l 71 621 l 191 926 l 290 926 z "},"’":{"ha":361,"x_min":71,"x_max":290,"o":"m 71 621 l 150 926 l 290 926 l 171 621 l 71 621 z "},"÷":{"ha":815,"x_min":57,"x_max":758,"o":"m 408 318 q 464 296 442 318 q 486 239 486 273 q 464 182 486 205 q 408 160 441 160 q 352 183 376 160 q 329 239 329 207 q 352 295 329 272 q 408 318 375 318 m 408 777 q 464 754 442 777 q 486 697 486 732 q 464 641 486 663 q 408 618 441 618 q 352 641 376 618 q 329 697 329 665 q 352 753 329 730 q 408 777 375 777 m 758 408 l 57 408 l 57 528 l 758 528 l 758 408 z "},"ÿ":{"ha":643,"x_min":17,"x_max":627,"o":"m 258 -20 l 17 681 l 160 681 l 325 172 l 497 681 l 627 681 l 376 -41 q 270 -235 331 -171 q 109 -329 210 -299 l 61 -239 q 189 -154 140 -208 q 258 -20 237 -100 m 463 962 q 518 939 494 962 q 542 884 542 916 q 518 828 542 851 q 463 804 494 804 q 407 828 430 804 q 383 884 383 851 q 407 939 383 915 q 463 962 431 962 m 182 962 q 237 939 214 962 q 261 884 261 916 q 237 828 261 851 q 182 804 214 804 q 126 828 150 804 q 102 884 102 851 q 126 939 102 915 q 182 962 150 962 z "},"Ÿ":{"ha":747,"x_min":18,"x_max":730,"o":"m 301 359 l 18 926 l 172 926 l 376 515 l 583 926 l 730 926 l 447 359 l 447 0 l 301 0 l 301 359 m 514 1208 q 570 1184 546 1208 q 593 1129 593 1161 q 570 1073 593 1097 q 514 1050 546 1050 q 458 1073 481 1050 q 435 1129 435 1097 q 458 1184 435 1160 q 514 1208 482 1208 m 233 1208 q 289 1184 265 1208 q 313 1129 313 1161 q 289 1073 313 1097 q 233 1050 265 1050 q 178 1073 201 1050 q 154 1129 154 1097 q 178 1184 154 1160 q 233 1208 201 1208 z "},"⁄":{"ha":215,"x_min":-220,"x_max":435,"o":"m -220 0 l 318 926 l 435 926 l -103 0 l -220 0 z "},"‹":{"ha":386,"x_min":69,"x_max":281,"o":"m 281 158 l 69 325 l 69 447 l 281 614 l 281 494 l 142 386 l 281 278 l 281 158 z "},"›":{"ha":386,"x_min":69,"x_max":281,"o":"m 69 158 l 69 278 l 208 386 l 69 494 l 69 614 l 281 447 l 281 325 l 69 158 z "},"·":{"ha":367,"x_min":106,"x_max":261,"o":"m 106 389 l 106 545 l 261 545 l 261 389 l 106 389 z "},"‚":{"ha":361,"x_min":71,"x_max":290,"o":"m 71 -150 l 150 155 l 290 155 l 171 -150 l 71 -150 z "},"„":{"ha":578,"x_min":71,"x_max":507,"o":"m 289 -150 l 367 155 l 507 155 l 389 -150 l 289 -150 m 71 -150 l 150 155 l 290 155 l 171 -150 l 71 -150 z "},"‰":{"ha":1508,"x_min":45,"x_max":1459,"o":"m 1257 482 q 1402 412 1345 482 q 1459 233 1459 342 q 1402 55 1459 125 q 1257 -16 1345 -16 q 1112 55 1169 -16 q 1054 233 1054 125 q 1112 412 1054 342 q 1257 482 1169 482 m 1257 401 q 1185 359 1209 401 q 1161 233 1161 317 q 1185 107 1161 149 q 1257 65 1209 65 q 1329 108 1304 65 q 1353 233 1353 151 q 1329 359 1353 317 q 1257 401 1304 401 m 248 940 q 393 870 336 940 q 450 692 450 801 q 393 513 450 584 q 248 443 335 443 q 102 513 159 443 q 45 692 45 584 q 102 870 45 801 q 248 940 159 940 m 248 860 q 175 818 199 860 q 151 692 151 776 q 175 566 151 608 q 248 524 199 524 q 319 566 294 524 q 343 692 343 609 q 319 818 343 775 q 248 860 295 860 m 183 0 l 721 926 l 838 926 l 300 0 l 183 0 m 777 401 q 705 359 728 401 q 681 233 681 317 q 705 107 681 149 q 777 65 728 65 q 848 108 823 65 q 872 233 872 151 q 848 359 872 317 q 777 401 824 401 m 777 482 q 922 412 865 482 q 979 233 979 342 q 922 55 979 125 q 777 -16 864 -16 q 631 55 689 -16 q 574 233 574 125 q 631 412 574 342 q 777 482 688 482 z "},"Â":{"ha":810,"x_min":17,"x_max":793,"o":"m 554 267 l 245 267 l 158 0 l 17 0 l 336 926 l 473 926 l 793 0 l 642 0 l 554 267 m 515 383 l 400 733 l 285 383 l 515 383 m 463 1246 l 571 1051 l 485 1051 l 406 1148 l 325 1051 l 240 1051 l 349 1246 l 463 1246 z "},"Ê":{"ha":697,"x_min":126,"x_max":636,"o":"m 636 0 l 126 0 l 126 926 l 636 926 l 636 808 l 272 808 l 272 539 l 574 539 l 574 421 l 272 421 l 272 118 l 636 118 l 636 0 m 427 1246 l 535 1051 l 449 1051 l 370 1148 l 289 1051 l 204 1051 l 313 1246 l 427 1246 z "},"Á":{"ha":810,"x_min":17,"x_max":793,"o":"m 554 267 l 245 267 l 158 0 l 17 0 l 336 926 l 473 926 l 793 0 l 642 0 l 554 267 m 515 383 l 400 733 l 285 383 l 515 383 m 350 1050 l 432 1246 l 583 1246 l 452 1050 l 350 1050 z "},"Ë":{"ha":697,"x_min":126,"x_max":636,"o":"m 636 0 l 126 0 l 126 926 l 636 926 l 636 808 l 272 808 l 272 539 l 574 539 l 574 421 l 272 421 l 272 118 l 636 118 l 636 0 m 510 1208 q 566 1184 542 1208 q 589 1129 589 1161 q 566 1073 589 1097 q 510 1050 542 1050 q 454 1073 477 1050 q 431 1129 431 1097 q 454 1184 431 1160 q 510 1208 478 1208 m 229 1208 q 285 1184 261 1208 q 309 1129 309 1161 q 285 1073 309 1097 q 229 1050 261 1050 q 174 1073 197 1050 q 150 1129 150 1097 q 174 1184 150 1160 q 229 1208 197 1208 z "},"È":{"ha":697,"x_min":126,"x_max":636,"o":"m 636 0 l 126 0 l 126 926 l 636 926 l 636 808 l 272 808 l 272 539 l 574 539 l 574 421 l 272 421 l 272 118 l 636 118 l 636 0 m 425 1051 l 323 1051 l 192 1246 l 343 1246 l 425 1051 z "},"Í":{"ha":399,"x_min":126,"x_max":378,"o":"m 126 926 l 272 926 l 272 0 l 126 0 l 126 926 m 144 1050 l 227 1246 l 378 1246 l 246 1050 l 144 1050 z "},"Î":{"ha":399,"x_min":35,"x_max":366,"o":"m 126 926 l 272 926 l 272 0 l 126 0 l 126 926 m 257 1246 l 366 1051 l 279 1051 l 200 1148 l 119 1051 l 35 1051 l 143 1246 l 257 1246 z "},"Ï":{"ha":399,"x_min":-20,"x_max":420,"o":"m 126 926 l 272 926 l 272 0 l 126 0 l 126 926 m 340 1208 q 396 1184 372 1208 q 420 1129 420 1161 q 396 1073 420 1097 q 340 1050 372 1050 q 284 1073 308 1050 q 261 1129 261 1097 q 285 1184 261 1160 q 340 1208 309 1208 m 60 1208 q 115 1184 92 1208 q 139 1129 139 1161 q 115 1073 139 1097 q 60 1050 92 1050 q 4 1073 28 1050 q -20 1129 -20 1097 q 4 1184 -20 1160 q 60 1208 28 1208 z "},"Ì":{"ha":399,"x_min":22,"x_max":272,"o":"m 126 926 l 272 926 l 272 0 l 126 0 l 126 926 m 256 1051 l 154 1051 l 22 1246 l 174 1246 l 256 1051 z "},"Ó":{"ha":900,"x_min":68,"x_max":832,"o":"m 450 822 q 287 725 348 822 q 225 463 225 627 q 287 201 225 298 q 450 103 348 103 q 613 201 551 103 q 675 463 675 299 q 613 724 675 627 q 450 822 552 822 m 450 940 q 723 805 614 940 q 832 463 832 669 q 724 120 832 255 q 450 -16 615 -16 q 177 121 286 -16 q 68 463 68 257 q 177 804 68 668 q 450 940 286 940 m 395 1050 l 477 1246 l 628 1246 l 496 1050 l 395 1050 z "},"Ô":{"ha":900,"x_min":68,"x_max":832,"o":"m 450 822 q 287 725 348 822 q 225 463 225 627 q 287 201 225 298 q 450 103 348 103 q 613 201 551 103 q 675 463 675 299 q 613 724 675 627 q 450 822 552 822 m 450 940 q 723 805 614 940 q 832 463 832 669 q 724 120 832 255 q 450 -16 615 -16 q 177 121 286 -16 q 68 463 68 257 q 177 804 68 668 q 450 940 286 940 m 507 1246 l 616 1051 l 530 1051 l 450 1148 l 370 1051 l 285 1051 l 393 1246 l 507 1246 z "},"Ò":{"ha":900,"x_min":68,"x_max":832,"o":"m 450 822 q 287 725 348 822 q 225 463 225 627 q 287 201 225 298 q 450 103 348 103 q 613 201 551 103 q 675 463 675 299 q 613 724 675 627 q 450 822 552 822 m 450 940 q 723 805 614 940 q 832 463 832 669 q 724 120 832 255 q 450 -16 615 -16 q 177 121 286 -16 q 68 463 68 257 q 177 804 68 668 q 450 940 286 940 m 506 1051 l 404 1051 l 273 1246 l 424 1246 l 506 1051 z "},"Ú":{"ha":864,"x_min":113,"x_max":751,"o":"m 606 261 l 606 926 l 751 926 l 751 236 q 666 53 751 119 q 432 -14 581 -14 q 197 53 281 -14 q 113 236 113 119 l 113 926 l 258 926 l 258 261 q 302 144 258 183 q 432 104 345 104 q 562 144 518 104 q 606 261 606 183 m 376 1050 l 458 1246 l 610 1246 l 478 1050 l 376 1050 z "},"Û":{"ha":864,"x_min":113,"x_max":751,"o":"m 606 261 l 606 926 l 751 926 l 751 236 q 666 53 751 119 q 432 -14 581 -14 q 197 53 281 -14 q 113 236 113 119 l 113 926 l 258 926 l 258 261 q 302 144 258 183 q 432 104 345 104 q 562 144 518 104 q 606 261 606 183 m 489 1246 l 597 1051 l 511 1051 l 432 1148 l 351 1051 l 267 1051 l 375 1246 l 489 1246 z "},"Ù":{"ha":864,"x_min":113,"x_max":751,"o":"m 606 261 l 606 926 l 751 926 l 751 236 q 666 53 751 119 q 432 -14 581 -14 q 197 53 281 -14 q 113 236 113 119 l 113 926 l 258 926 l 258 261 q 302 144 258 183 q 432 104 345 104 q 562 144 518 104 q 606 261 606 183 m 488 1051 l 386 1051 l 254 1246 l 406 1246 l 488 1051 z "},"ı":{"ha":355,"x_min":109,"x_max":248,"o":"m 248 0 l 109 0 l 109 681 l 248 681 l 248 0 z "},"ˆ":{"ha":694,"x_min":182,"x_max":513,"o":"m 404 1000 l 513 806 l 427 806 l 347 903 l 267 806 l 182 806 l 290 1000 l 404 1000 z "},"˜":{"ha":694,"x_min":143,"x_max":551,"o":"m 486 958 l 551 958 q 520 844 551 884 q 433 803 490 803 q 341 831 403 803 q 257 859 280 859 q 223 844 235 859 q 208 800 212 829 l 143 800 q 182 915 153 877 q 264 953 212 953 q 355 925 294 953 q 439 897 416 897 q 473 912 461 897 q 486 958 484 928 z "},"ˉ":{"ha":694,"x_min":174,"x_max":521,"o":"m 174 928 l 521 928 l 521 831 l 174 831 l 174 928 z "},"˘":{"ha":694,"x_min":182,"x_max":512,"o":"m 182 986 l 254 986 q 279 918 256 940 q 347 896 302 896 q 415 917 393 896 q 441 986 437 939 l 512 986 q 470 851 511 897 q 347 806 429 806 q 224 851 266 806 q 182 986 183 897 z "},"˙":{"ha":694,"x_min":268,"x_max":427,"o":"m 347 962 q 403 939 379 962 q 427 884 427 915 q 403 828 427 851 q 347 804 380 804 q 291 828 315 804 q 268 884 268 851 q 292 939 268 915 q 347 962 315 962 z "},"˚":{"ha":694,"x_min":232,"x_max":463,"o":"m 292 904 q 308 864 292 881 q 347 847 325 847 q 386 864 370 847 q 403 904 403 881 q 387 943 403 927 q 347 960 370 960 q 308 943 324 960 q 292 904 292 927 m 232 904 q 266 986 232 952 q 347 1019 299 1019 q 429 986 395 1019 q 463 904 463 952 q 429 822 463 857 q 347 787 395 787 q 266 822 300 787 q 232 904 232 856 z "},"¸":{"ha":694,"x_min":193,"x_max":501,"o":"m 244 -123 l 340 0 l 411 0 l 339 -89 l 342 -92 q 366 -86 355 -88 q 387 -85 377 -85 q 470 -112 439 -85 q 501 -184 501 -140 q 452 -280 501 -244 q 319 -317 402 -317 q 253 -309 286 -317 q 193 -288 220 -302 l 220 -233 q 267 -249 244 -243 q 311 -254 290 -254 q 374 -240 353 -254 q 396 -197 396 -225 q 376 -156 396 -172 q 323 -140 357 -140 q 296 -143 310 -140 q 268 -153 283 -146 l 244 -123 z "},"˛":{"ha":694,"x_min":168,"x_max":526,"o":"m 492 -157 l 526 -232 q 451 -271 490 -258 q 372 -283 412 -283 q 225 -227 283 -283 q 168 -82 168 -170 q 172 -38 168 -58 q 184 0 176 -18 l 296 0 q 279 -41 285 -21 q 273 -79 273 -61 q 305 -162 273 -130 q 389 -193 337 -193 q 440 -184 414 -193 q 492 -157 467 -174 z "},"ˇ":{"ha":694,"x_min":182,"x_max":513,"o":"m 404 806 l 290 806 l 182 1000 l 267 1000 l 347 903 l 427 1000 l 513 1000 l 404 806 z "},"Ł":{"ha":624,"x_min":-37,"x_max":608,"o":"m -37 335 l 126 472 l 126 926 l 272 926 l 272 595 l 431 728 l 498 647 l 272 458 l 272 118 l 608 118 l 608 0 l 126 0 l 126 336 l 31 254 l -37 335 z "},"ł":{"ha":386,"x_min":-40,"x_max":410,"o":"m 397 12 q 339 -7 368 -1 q 279 -14 311 -14 q 140 40 182 -14 q 98 222 98 93 l 98 355 l 26 294 l -40 375 l 98 490 l 98 1000 l 237 1000 l 237 607 l 343 696 l 410 615 l 237 471 l 237 237 q 255 127 237 158 q 317 96 273 96 q 338 98 327 96 q 363 104 350 100 l 397 12 z "},"Š":{"ha":739,"x_min":47,"x_max":677,"o":"m 103 191 q 225 125 167 145 q 349 106 283 106 q 478 144 431 106 q 525 252 525 183 q 494 335 525 300 q 404 390 464 370 l 315 421 q 117 525 172 468 q 62 677 62 583 q 145 875 62 801 q 367 949 229 949 q 506 928 438 949 q 640 864 573 907 l 585 761 q 477 807 532 791 q 370 823 422 823 q 255 788 296 823 q 215 686 215 752 q 240 618 215 646 q 318 572 264 590 l 408 543 q 617 426 557 494 q 677 249 677 359 q 587 59 677 134 q 353 -16 496 -16 q 195 7 269 -16 q 47 79 121 31 l 103 191 m 427 1051 l 313 1051 l 204 1246 l 289 1246 l 370 1148 l 449 1246 l 535 1246 l 427 1051 z "},"š":{"ha":623,"x_min":39,"x_max":558,"o":"m 39 56 l 89 160 q 193 113 140 130 q 297 97 247 97 q 380 121 350 97 q 411 187 411 146 q 391 236 411 216 q 332 269 371 257 l 257 293 q 106 373 146 329 q 66 492 66 417 q 137 638 66 583 q 323 694 208 694 q 422 679 370 694 q 532 633 475 664 l 488 534 q 401 574 441 562 q 323 586 362 586 q 242 562 273 586 q 211 498 211 538 q 230 452 211 471 q 286 421 249 432 l 359 397 q 520 316 481 358 q 558 200 558 273 q 486 47 558 106 q 298 -11 414 -11 q 167 6 232 -11 q 39 56 102 22 m 368 806 l 254 806 l 146 1000 l 231 1000 l 311 903 l 391 1000 l 477 1000 l 368 806 z "},"Ž":{"ha":685,"x_min":29,"x_max":650,"o":"m 57 926 l 629 926 l 629 810 l 184 118 l 650 118 l 650 0 l 29 0 l 29 119 l 473 808 l 57 808 l 57 926 m 400 1051 l 286 1051 l 178 1246 l 262 1246 l 343 1148 l 422 1246 l 509 1246 l 400 1051 z "},"ž":{"ha":586,"x_min":37,"x_max":546,"o":"m 546 0 l 37 0 l 37 78 l 385 576 l 74 576 l 74 681 l 541 681 l 541 589 l 201 104 l 546 104 l 546 0 m 350 806 l 236 806 l 127 1000 l 212 1000 l 293 903 l 372 1000 l 458 1000 l 350 806 z "},"Ð":{"ha":840,"x_min":12,"x_max":772,"o":"m 12 539 l 126 539 l 126 926 l 372 926 q 667 804 562 926 q 772 463 772 682 q 665 130 772 259 q 390 0 557 0 l 126 0 l 126 421 l 12 421 l 12 539 m 272 539 l 441 539 l 441 421 l 272 421 l 272 125 l 383 125 q 557 216 492 125 q 623 463 623 308 q 557 709 623 617 q 383 802 492 802 l 272 802 l 272 539 z "},"ð":{"ha":815,"x_min":97,"x_max":733,"o":"m 623 810 q 705 646 679 735 q 732 443 732 557 q 647 101 732 220 q 400 -17 562 -17 q 179 70 261 -17 q 97 302 97 156 q 171 507 97 433 q 374 581 244 581 q 474 571 425 581 q 575 542 524 562 q 555 653 574 601 q 498 751 536 705 l 304 661 l 267 741 l 433 817 q 357 874 407 848 q 224 926 307 901 l 224 940 l 399 940 q 491 909 454 924 q 553 873 527 893 l 696 940 l 733 861 l 623 810 m 575 416 q 493 459 534 446 q 401 472 452 472 q 288 430 326 472 q 250 306 250 389 q 288 149 250 201 q 400 97 325 97 q 531 173 486 97 q 575 397 575 249 l 575 416 z "},"Ý":{"ha":747,"x_min":18,"x_max":730,"o":"m 301 359 l 18 926 l 172 926 l 376 515 l 583 926 l 730 926 l 447 359 l 447 0 l 301 0 l 301 359 m 318 1050 l 400 1246 l 551 1246 l 420 1050 l 318 1050 z "},"ý":{"ha":643,"x_min":17,"x_max":627,"o":"m 258 -20 l 17 681 l 160 681 l 325 172 l 497 681 l 627 681 l 376 -41 q 270 -235 331 -171 q 109 -329 210 -299 l 61 -239 q 189 -154 140 -208 q 258 -20 237 -100 m 267 804 l 349 1000 l 500 1000 l 368 804 l 267 804 z "},"Þ":{"ha":771,"x_min":126,"x_max":710,"o":"m 273 317 l 386 317 q 518 357 475 317 q 562 479 562 398 q 518 601 562 560 q 386 642 475 642 l 273 642 l 273 317 m 380 760 q 628 690 545 760 q 710 479 710 620 q 628 269 710 338 q 383 199 547 199 l 273 199 l 273 0 l 126 0 l 126 926 l 273 926 l 273 760 l 380 760 z "},"þ":{"ha":733,"x_min":109,"x_max":672,"o":"m 248 515 l 248 153 q 313 109 278 125 q 378 93 348 93 q 488 161 450 93 q 525 359 525 229 q 489 520 525 463 q 387 576 453 576 q 317 562 351 576 q 248 515 283 547 m 248 623 q 327 677 286 661 q 421 694 368 694 q 603 604 534 694 q 672 364 672 514 q 603 85 672 184 q 410 -14 534 -14 q 325 -1 366 -14 q 248 36 285 11 l 248 -326 l 109 -326 l 109 1000 l 248 1000 l 248 623 z "},"−":{"ha":815,"x_min":57,"x_max":758,"o":"m 57 528 l 758 528 l 758 408 l 57 408 l 57 528 z "},"×":{"ha":815,"x_min":87,"x_max":728,"o":"m 493 468 l 728 233 l 642 149 l 408 383 l 174 149 l 87 233 l 322 468 l 87 703 l 174 787 l 408 553 l 642 787 l 728 703 l 493 468 z "},"¼":{"ha":1250,"x_min":139,"x_max":1158,"o":"m 964 205 l 964 410 l 1075 410 l 1075 205 l 1158 205 l 1158 117 l 1075 117 l 1075 0 l 964 0 l 964 117 l 710 117 l 710 183 l 908 583 l 1011 583 l 832 205 l 964 205 m 256 0 l 793 926 l 909 926 l 372 0 l 256 0 m 232 789 q 185 761 208 773 q 139 739 163 749 l 139 840 q 195 878 168 857 q 248 926 222 900 l 343 926 l 343 342 l 232 342 l 232 789 z "},"½":{"ha":1250,"x_min":125,"x_max":1137,"o":"m 764 0 l 764 87 q 964 282 905 210 q 1022 404 1022 355 q 999 463 1022 441 q 939 485 977 485 q 882 469 909 485 q 819 418 854 454 l 754 490 q 852 563 802 539 q 954 587 901 587 q 1086 536 1034 587 q 1137 407 1137 484 q 1085 266 1137 343 q 924 89 1033 188 l 1132 89 l 1132 0 l 764 0 m 241 0 l 779 926 l 896 926 l 358 0 l 241 0 m 218 789 q 171 761 194 773 q 125 739 149 749 l 125 840 q 182 878 155 857 q 233 926 209 900 l 329 926 l 329 342 l 218 342 l 218 789 z "},"¾":{"ha":1250,"x_min":96,"x_max":1200,"o":"m 292 838 l 96 838 l 96 926 l 432 926 l 432 856 l 315 728 q 425 671 388 715 q 463 551 463 626 q 398 402 463 459 q 231 345 334 345 q 167 351 199 345 q 98 371 135 357 l 98 464 q 169 443 141 449 q 221 437 197 437 q 312 467 279 437 q 346 546 346 496 q 312 616 346 590 q 218 642 277 642 q 191 641 206 642 q 156 637 175 640 l 155 690 l 292 838 m 1006 205 l 1006 410 l 1117 410 l 1117 205 l 1200 205 l 1200 117 l 1117 117 l 1117 0 l 1006 0 l 1006 117 l 751 117 l 751 183 l 950 583 l 1053 583 l 873 205 l 1006 205 m 297 0 l 835 926 l 951 926 l 414 0 l 297 0 z "},"Ğ":{"ha":817,"x_min":68,"x_max":739,"o":"m 739 94 q 603 11 671 38 q 458 -16 534 -16 q 178 119 288 -16 q 68 463 68 254 q 177 804 68 668 q 450 940 287 940 q 595 916 532 940 q 721 838 659 892 l 647 751 q 556 808 598 791 q 464 825 514 825 q 289 728 353 825 q 225 463 225 631 q 292 196 225 293 q 473 98 359 98 q 546 110 514 98 q 603 144 577 121 l 603 401 l 416 401 l 416 519 l 739 519 l 739 94 m 243 1232 l 315 1232 q 340 1163 317 1185 q 408 1141 363 1141 q 476 1163 454 1141 q 502 1232 498 1184 l 573 1232 q 531 1097 572 1142 q 408 1051 490 1051 q 286 1097 327 1051 q 243 1232 244 1142 z "},"ğ":{"ha":733,"x_min":60,"x_max":624,"o":"m 485 165 l 485 528 q 419 571 454 555 q 354 587 384 587 q 244 520 281 587 q 207 321 207 452 q 243 161 207 217 q 345 104 279 104 q 415 119 380 104 q 485 165 449 134 m 485 58 q 405 3 446 20 q 311 -14 363 -14 q 129 76 197 -14 q 60 317 60 166 q 129 595 60 496 q 322 694 198 694 q 407 682 366 694 q 485 644 447 670 l 485 681 l 624 681 l 624 -75 q 552 -277 624 -210 q 334 -345 479 -345 q 174 -299 236 -345 q 87 -164 112 -253 l 216 -164 q 264 -214 233 -197 q 338 -231 295 -231 q 448 -190 411 -231 q 485 -69 485 -150 l 485 58 m 202 986 l 273 986 q 299 918 276 940 q 367 896 321 896 q 434 917 412 896 q 460 986 456 939 l 532 986 q 490 851 531 897 q 367 806 448 806 q 244 851 286 806 q 202 986 203 897 z "},"İ":{"ha":399,"x_min":121,"x_max":279,"o":"m 126 926 l 272 926 l 272 0 l 126 0 l 126 926 m 200 1208 q 256 1184 232 1208 q 279 1129 279 1160 q 256 1073 279 1097 q 200 1050 233 1050 q 144 1073 168 1050 q 121 1129 121 1097 q 144 1184 121 1160 q 200 1208 168 1208 z "},"Ş":{"ha":739,"x_min":47,"x_max":677,"o":"m 103 191 q 225 125 167 145 q 349 106 283 106 q 478 144 431 106 q 525 252 525 183 q 494 335 525 300 q 404 390 464 370 l 315 421 q 117 525 172 468 q 62 677 62 583 q 145 875 62 801 q 367 949 229 949 q 506 928 438 949 q 640 864 573 907 l 585 761 q 477 807 532 791 q 370 823 422 823 q 255 788 296 823 q 215 686 215 752 q 240 618 215 646 q 318 572 264 590 l 408 543 q 617 426 557 494 q 677 249 677 359 q 594 65 677 138 q 376 -16 511 -8 l 317 -89 l 319 -92 q 343 -86 332 -88 q 366 -85 355 -85 q 448 -112 416 -85 q 479 -184 479 -140 q 429 -280 479 -244 q 296 -317 378 -317 q 230 -309 262 -317 q 171 -288 199 -302 l 197 -233 q 245 -249 222 -243 q 289 -254 268 -254 q 352 -240 330 -254 q 374 -197 374 -225 q 354 -156 374 -172 q 301 -140 334 -140 q 274 -143 288 -140 q 245 -153 260 -146 l 222 -123 l 307 -14 l 300 -14 q 183 11 252 -14 q 47 79 115 35 l 103 191 z "},"ş":{"ha":623,"x_min":39,"x_max":558,"o":"m 39 56 l 89 160 q 193 113 140 130 q 297 97 247 97 q 380 121 350 97 q 411 187 411 146 q 391 236 411 216 q 332 269 371 257 l 257 293 q 106 373 146 329 q 66 492 66 417 q 137 638 66 583 q 323 694 208 694 q 422 679 370 694 q 532 633 475 664 l 488 534 q 401 574 441 562 q 323 586 362 586 q 242 562 273 586 q 211 498 211 538 q 230 452 211 471 q 286 421 249 432 l 359 397 q 520 316 481 358 q 558 200 558 273 q 492 53 558 113 q 345 -7 427 -7 q 339 -8 342 -8 l 278 -83 l 281 -86 q 304 -81 293 -83 q 326 -79 316 -79 q 409 -107 377 -79 q 440 -180 440 -136 q 391 -275 440 -239 q 258 -311 341 -311 q 192 -304 224 -311 q 132 -282 159 -296 l 158 -228 q 206 -243 183 -238 q 250 -249 229 -249 q 313 -234 292 -249 q 335 -192 335 -220 q 315 -151 335 -166 q 262 -135 296 -135 q 235 -138 249 -135 q 207 -147 222 -141 l 183 -118 l 268 -9 l 260 -9 q 160 8 220 -9 q 39 56 100 25 z "},"Ć":{"ha":692,"x_min":68,"x_max":692,"o":"m 612 778 q 543 813 579 802 q 464 825 507 825 q 289 728 353 825 q 225 463 225 631 q 288 198 225 293 q 464 103 351 103 q 546 117 507 103 q 628 161 585 131 l 692 71 q 580 5 637 26 q 450 -16 522 -16 q 177 121 286 -16 q 68 463 68 257 q 178 805 68 671 q 460 940 289 940 q 578 922 523 940 q 689 867 634 905 l 612 778 m 390 1050 l 472 1246 l 623 1246 l 492 1050 l 390 1050 z "},"ć":{"ha":585,"x_min":61,"x_max":585,"o":"m 585 78 q 480 8 533 29 q 359 -14 428 -14 q 144 84 227 -14 q 61 340 61 182 q 148 592 61 489 q 357 694 234 694 q 472 674 418 694 q 581 607 525 653 l 528 524 q 443 576 481 561 q 361 591 404 591 q 249 525 290 591 q 208 340 208 458 q 251 154 208 218 q 374 89 294 89 q 455 103 418 89 q 533 150 492 117 l 585 78 m 305 804 l 387 1000 l 538 1000 l 407 804 l 305 804 z "},"Č":{"ha":692,"x_min":68,"x_max":692,"o":"m 612 778 q 543 813 579 802 q 464 825 507 825 q 289 728 353 825 q 225 463 225 631 q 288 198 225 293 q 464 103 351 103 q 546 117 507 103 q 628 161 585 131 l 692 71 q 580 5 637 26 q 450 -16 522 -16 q 177 121 286 -16 q 68 463 68 257 q 178 805 68 671 q 460 940 289 940 q 578 922 523 940 q 689 867 634 905 l 612 778 m 503 1051 l 389 1051 l 280 1246 l 365 1246 l 446 1148 l 525 1246 l 611 1246 l 503 1051 z "},"č":{"ha":585,"x_min":61,"x_max":585,"o":"m 585 78 q 480 8 533 29 q 359 -14 428 -14 q 144 84 227 -14 q 61 340 61 182 q 148 592 61 489 q 357 694 234 694 q 472 674 418 694 q 581 607 525 653 l 528 524 q 443 576 481 561 q 361 591 404 591 q 249 525 290 591 q 208 340 208 458 q 251 154 208 218 q 374 89 294 89 q 455 103 418 89 q 533 150 492 117 l 585 78 m 418 806 l 304 806 l 195 1000 l 280 1000 l 361 903 l 440 1000 l 526 1000 l 418 806 z "},"đ":{"ha":733,"x_min":60,"x_max":701,"o":"m 485 58 q 405 3 446 20 q 311 -14 363 -14 q 129 76 197 -14 q 60 317 60 166 q 129 595 60 496 q 322 694 198 694 q 407 682 366 694 q 485 644 447 670 l 485 806 l 277 806 l 277 896 l 485 896 l 485 1000 l 624 1000 l 624 896 l 701 896 l 701 806 l 624 806 l 624 0 l 485 0 l 485 58 m 485 165 l 485 528 q 419 571 454 555 q 354 587 384 587 q 244 520 281 587 q 207 321 207 452 q 243 161 207 217 q 345 104 279 104 q 415 119 380 104 q 485 165 449 134 z "},"Ă":{"ha":810,"x_min":17,"x_max":793,"o":"m 554 267 l 245 267 l 158 0 l 17 0 l 336 926 l 473 926 l 793 0 l 642 0 l 554 267 m 515 383 l 400 733 l 285 383 l 515 383 m 241 1232 l 312 1232 q 337 1163 315 1185 q 406 1141 360 1141 q 473 1163 451 1141 q 499 1232 495 1184 l 570 1232 q 528 1097 570 1142 q 406 1051 487 1051 q 283 1097 324 1051 q 241 1232 241 1142 z "},"ă":{"ha":677,"x_min":52,"x_max":582,"o":"m 443 171 l 443 326 q 414 330 429 329 q 382 332 399 332 q 233 297 287 332 q 179 200 179 262 q 215 123 179 153 q 309 93 252 93 q 387 113 353 93 q 443 171 422 133 m 175 541 l 175 659 q 258 686 216 677 q 347 694 300 694 q 530 630 477 694 q 582 393 582 565 l 582 0 l 443 0 l 443 45 q 368 2 407 16 q 285 -12 329 -12 q 115 48 179 -12 q 52 211 52 109 q 135 372 52 315 q 372 429 218 429 q 406 429 389 429 q 443 427 422 428 l 443 458 q 416 556 443 528 q 326 583 390 583 q 249 573 286 583 q 175 541 212 562 m 174 986 l 245 986 q 271 918 248 940 q 339 896 294 896 q 407 917 385 896 q 433 986 429 939 l 504 986 q 462 851 503 897 q 339 806 420 806 q 216 851 258 806 q 174 986 175 897 z "},"Ą":{"ha":810,"x_min":17,"x_max":985,"o":"m 515 383 l 400 733 l 285 383 l 515 383 m 950 -157 l 985 -232 q 909 -271 947 -258 q 831 -283 871 -283 q 684 -227 741 -283 q 627 -82 627 -170 q 630 -38 627 -58 q 642 0 634 -18 l 554 267 l 245 267 l 158 0 l 17 0 l 336 926 l 473 926 l 793 0 l 754 0 q 738 -40 743 -20 q 732 -79 732 -60 q 764 -162 732 -130 q 847 -193 795 -193 q 899 -184 872 -193 q 950 -157 925 -174 z "},"ą":{"ha":677,"x_min":52,"x_max":786,"o":"m 175 541 l 175 659 q 258 686 216 677 q 347 694 300 694 q 530 630 477 694 q 582 393 582 565 l 582 0 l 555 0 q 538 -43 544 -24 q 533 -79 533 -62 q 565 -161 533 -130 q 648 -193 597 -193 q 700 -184 674 -193 q 751 -157 726 -174 l 786 -232 q 711 -271 749 -258 q 632 -283 672 -283 q 485 -227 543 -283 q 428 -82 428 -170 q 432 -38 428 -58 q 443 1 435 -18 l 443 45 q 368 2 407 16 q 285 -12 329 -12 q 115 48 179 -12 q 52 211 52 109 q 135 372 52 315 q 372 429 218 429 q 411 429 387 429 q 443 428 435 428 l 443 458 q 416 556 443 528 q 326 583 390 583 q 249 573 286 583 q 175 541 212 562 m 443 171 l 443 326 q 414 330 429 329 q 382 332 399 332 q 233 297 287 332 q 179 200 179 262 q 215 123 179 153 q 309 93 252 93 q 387 113 353 93 q 443 171 422 133 z "},"Ď":{"ha":840,"x_min":126,"x_max":772,"o":"m 383 125 q 557 216 492 125 q 623 463 623 308 q 557 709 623 617 q 383 802 492 802 l 272 802 l 272 125 l 383 125 m 390 0 l 126 0 l 126 926 l 372 926 q 667 804 562 926 q 772 463 772 682 q 665 130 772 259 q 390 0 557 0 m 478 1051 l 364 1051 l 256 1246 l 340 1246 l 421 1148 l 500 1246 l 587 1246 l 478 1051 z "},"ď":{"ha":733,"x_min":60,"x_max":717,"o":"m 485 58 q 405 3 446 20 q 311 -14 363 -14 q 129 76 197 -14 q 60 317 60 166 q 129 595 60 496 q 322 694 198 694 q 407 682 366 694 q 485 644 447 670 l 485 1000 l 624 1000 l 624 0 l 485 0 l 485 58 m 485 165 l 485 528 q 419 571 454 555 q 354 587 384 587 q 244 520 281 587 q 207 321 207 452 q 243 161 207 217 q 345 104 279 104 q 415 119 380 104 q 485 165 449 134 m 608 1112 l 494 1112 l 386 1306 l 471 1306 l 551 1208 l 631 1306 l 717 1306 l 608 1112 z "},"Đ":{"ha":840,"x_min":12,"x_max":772,"o":"m 12 539 l 126 539 l 126 926 l 372 926 q 667 804 562 926 q 772 463 772 682 q 665 130 772 259 q 390 0 557 0 l 126 0 l 126 421 l 12 421 l 12 539 m 272 539 l 441 539 l 441 421 l 272 421 l 272 125 l 383 125 q 557 216 492 125 q 623 463 623 308 q 557 709 623 617 q 383 802 492 802 l 272 802 l 272 539 z "},"Ę":{"ha":697,"x_min":126,"x_max":672,"o":"m 637 -157 l 672 -232 q 597 -271 635 -258 q 518 -283 558 -283 q 371 -227 429 -283 q 314 -82 314 -170 q 318 -38 314 -58 q 329 0 321 -18 l 126 0 l 126 926 l 636 926 l 636 808 l 272 808 l 272 539 l 574 539 l 574 421 l 272 421 l 272 118 l 636 118 l 636 0 l 443 0 q 425 -41 431 -21 q 419 -79 419 -62 q 451 -162 419 -130 q 534 -193 483 -193 q 586 -184 560 -193 q 637 -157 612 -174 z "},"ę":{"ha":701,"x_min":61,"x_max":652,"o":"m 212 411 l 488 411 q 445 543 480 496 q 350 589 409 589 q 257 543 292 589 q 212 411 221 497 m 621 96 q 516 22 566 47 q 416 -9 467 -4 q 403 -45 408 -28 q 399 -79 399 -62 q 430 -162 399 -130 q 514 -193 462 -193 q 566 -184 539 -193 q 616 -157 592 -174 l 652 -232 q 576 -271 614 -258 q 497 -283 537 -283 q 350 -227 408 -283 q 293 -82 293 -170 q 296 -45 293 -62 q 305 -9 299 -27 q 129 104 196 7 q 61 340 61 200 q 142 595 61 496 q 350 694 224 694 q 557 593 474 694 q 640 346 640 492 q 640 323 640 332 q 639 304 640 314 l 210 304 q 256 142 214 196 q 380 89 299 89 q 470 109 426 89 q 568 172 515 128 l 621 96 z "},"Ě":{"ha":697,"x_min":126,"x_max":636,"o":"m 636 0 l 126 0 l 126 926 l 636 926 l 636 808 l 272 808 l 272 539 l 574 539 l 574 421 l 272 421 l 272 118 l 636 118 l 636 0 m 427 1051 l 313 1051 l 204 1246 l 289 1246 l 370 1148 l 449 1246 l 535 1246 l 427 1051 z "},"ě":{"ha":701,"x_min":61,"x_max":640,"o":"m 621 96 q 495 13 558 39 q 359 -14 431 -14 q 143 84 225 -14 q 61 340 61 181 q 142 595 61 496 q 350 694 224 694 q 557 593 474 694 q 640 346 640 492 l 640 304 l 210 304 q 256 142 214 196 q 380 89 299 89 q 470 109 426 89 q 568 172 515 128 l 621 96 m 212 411 l 488 411 q 445 543 480 496 q 350 589 409 589 q 257 543 292 589 q 212 411 221 497 m 408 806 l 294 806 l 186 1000 l 271 1000 l 351 903 l 431 1000 l 517 1000 l 408 806 z "},"Ĺ":{"ha":624,"x_min":126,"x_max":608,"o":"m 608 0 l 126 0 l 126 926 l 272 926 l 272 118 l 608 118 l 608 0 m 140 1050 l 222 1246 l 374 1246 l 242 1050 l 140 1050 z "},"ĺ":{"ha":386,"x_min":98,"x_max":397,"o":"m 397 12 q 339 -7 368 -1 q 279 -14 311 -14 q 140 40 182 -14 q 98 222 98 93 l 98 1000 l 237 1000 l 237 237 q 255 127 237 158 q 317 96 273 96 q 338 98 327 96 q 363 104 350 100 l 397 12 m 119 1110 l 201 1306 l 353 1306 l 221 1110 l 119 1110 z "},"Ŀ":{"ha":624,"x_min":126,"x_max":608,"o":"m 406 389 l 406 545 l 561 545 l 561 389 l 406 389 m 608 0 l 126 0 l 126 926 l 272 926 l 272 118 l 608 118 l 608 0 z "},"ŀ":{"ha":515,"x_min":98,"x_max":500,"o":"m 397 12 q 339 -7 368 -1 q 279 -14 311 -14 q 140 40 182 -14 q 98 222 98 93 l 98 1000 l 237 1000 l 237 237 q 255 127 237 158 q 317 96 273 96 q 338 98 327 96 q 363 104 350 100 l 397 12 m 345 389 l 345 545 l 500 545 l 500 389 l 345 389 z "},"Ń":{"ha":922,"x_min":126,"x_max":796,"o":"m 126 0 l 126 926 l 290 926 l 650 253 l 650 926 l 796 926 l 796 0 l 635 0 l 272 682 l 272 0 l 126 0 m 406 1050 l 488 1246 l 639 1246 l 507 1050 l 406 1050 z "},"ń":{"ha":739,"x_min":109,"x_max":643,"o":"m 643 0 l 504 0 l 504 473 q 479 548 504 523 q 406 574 454 574 q 327 558 365 574 q 248 509 289 543 l 248 0 l 109 0 l 109 681 l 248 681 l 248 623 q 355 677 303 660 q 464 694 407 694 q 596 648 549 694 q 643 518 643 602 l 643 0 m 326 804 l 408 1000 l 559 1000 l 428 804 l 326 804 z "},"Ň":{"ha":922,"x_min":126,"x_max":796,"o":"m 126 0 l 126 926 l 290 926 l 650 253 l 650 926 l 796 926 l 796 0 l 635 0 l 272 682 l 272 0 l 126 0 m 518 1051 l 404 1051 l 296 1246 l 380 1246 l 461 1148 l 541 1246 l 627 1246 l 518 1051 z "},"ň":{"ha":739,"x_min":109,"x_max":643,"o":"m 643 0 l 504 0 l 504 473 q 479 548 504 523 q 406 574 454 574 q 327 558 365 574 q 248 509 289 543 l 248 0 l 109 0 l 109 681 l 248 681 l 248 623 q 355 677 303 660 q 464 694 407 694 q 596 648 549 694 q 643 518 643 602 l 643 0 m 439 806 l 325 806 l 216 1000 l 301 1000 l 382 903 l 461 1000 l 547 1000 l 439 806 z "},"Ŕ":{"ha":799,"x_min":126,"x_max":799,"o":"m 507 429 l 799 0 l 628 0 l 349 411 l 272 411 l 272 0 l 126 0 l 126 926 l 375 926 q 612 863 536 926 q 688 665 688 800 q 643 515 688 574 q 507 429 597 456 m 272 525 l 358 525 q 496 559 450 525 q 542 663 542 594 q 500 773 542 736 q 374 810 458 810 l 272 810 l 272 525 m 345 1050 l 427 1246 l 578 1246 l 446 1050 l 345 1050 z "},"ŕ":{"ha":481,"x_min":109,"x_max":492,"o":"m 248 484 l 248 0 l 109 0 l 109 681 l 248 681 l 248 603 l 290 640 q 348 680 322 669 q 406 692 374 692 q 447 685 425 692 q 492 664 468 678 l 447 542 q 414 550 430 547 q 379 553 397 553 q 311 537 341 553 q 248 484 280 521 m 184 804 l 267 1000 l 418 1000 l 286 804 l 184 804 z "},"Ř":{"ha":799,"x_min":126,"x_max":799,"o":"m 507 429 l 799 0 l 628 0 l 349 411 l 272 411 l 272 0 l 126 0 l 126 926 l 375 926 q 612 863 536 926 q 688 665 688 800 q 643 515 688 574 q 507 429 597 456 m 272 525 l 358 525 q 496 559 450 525 q 542 663 542 594 q 500 773 542 736 q 374 810 458 810 l 272 810 l 272 525 m 457 1051 l 343 1051 l 235 1246 l 319 1246 l 400 1148 l 479 1246 l 566 1246 l 457 1051 z "},"ř":{"ha":481,"x_min":75,"x_max":492,"o":"m 248 484 l 248 0 l 109 0 l 109 681 l 248 681 l 248 603 l 290 640 q 348 680 322 669 q 406 692 374 692 q 447 685 425 692 q 492 664 468 678 l 447 542 q 414 550 430 547 q 379 553 397 553 q 311 537 341 553 q 248 484 280 521 m 297 806 l 183 806 l 75 1000 l 159 1000 l 240 903 l 319 1000 l 406 1000 l 297 806 z "},"Ś":{"ha":739,"x_min":47,"x_max":677,"o":"m 103 191 q 225 125 167 145 q 349 106 283 106 q 478 144 431 106 q 525 252 525 183 q 494 335 525 300 q 404 390 464 370 l 315 421 q 117 525 172 468 q 62 677 62 583 q 145 875 62 801 q 367 949 229 949 q 506 928 438 949 q 640 864 573 907 l 585 761 q 477 807 532 791 q 370 823 422 823 q 255 788 296 823 q 215 686 215 752 q 240 618 215 646 q 318 572 264 590 l 408 543 q 617 426 557 494 q 677 249 677 359 q 587 59 677 134 q 353 -16 496 -16 q 195 7 269 -16 q 47 79 121 31 l 103 191 m 314 1050 l 396 1246 l 547 1246 l 416 1050 l 314 1050 z "},"ś":{"ha":623,"x_min":39,"x_max":558,"o":"m 39 56 l 89 160 q 193 113 140 130 q 297 97 247 97 q 380 121 350 97 q 411 187 411 146 q 391 236 411 216 q 332 269 371 257 l 257 293 q 106 373 146 329 q 66 492 66 417 q 137 638 66 583 q 323 694 208 694 q 422 679 370 694 q 532 633 475 664 l 488 534 q 401 574 441 562 q 323 586 362 586 q 242 562 273 586 q 211 498 211 538 q 230 452 211 471 q 286 421 249 432 l 359 397 q 520 316 481 358 q 558 200 558 273 q 486 47 558 106 q 298 -11 414 -11 q 167 6 232 -11 q 39 56 102 22 m 256 804 l 338 1000 l 489 1000 l 357 804 l 256 804 z "},"Ť":{"ha":682,"x_min":22,"x_max":660,"o":"m 22 926 l 660 926 l 660 808 l 414 808 l 414 0 l 268 0 l 268 808 l 22 808 l 22 926 m 399 1051 l 285 1051 l 176 1246 l 261 1246 l 342 1148 l 421 1246 l 507 1246 l 399 1051 z "},"Ů":{"ha":864,"x_min":113,"x_max":751,"o":"m 606 261 l 606 926 l 751 926 l 751 236 q 666 53 751 119 q 432 -14 581 -14 q 197 53 281 -14 q 113 236 113 119 l 113 926 l 258 926 l 258 261 q 302 144 258 183 q 432 104 345 104 q 562 144 518 104 q 606 261 606 183 m 376 1149 q 393 1109 376 1126 q 432 1093 410 1093 q 471 1109 454 1093 q 488 1149 488 1126 q 471 1189 488 1173 q 432 1205 455 1205 q 393 1189 409 1205 q 376 1149 376 1173 m 317 1149 q 350 1231 317 1198 q 432 1265 384 1265 q 514 1231 480 1265 q 547 1149 547 1198 q 513 1067 547 1102 q 432 1033 479 1033 q 351 1067 385 1033 q 317 1149 317 1101 z "},"ů":{"ha":739,"x_min":96,"x_max":631,"o":"m 96 681 l 235 681 l 235 207 q 260 132 235 157 q 334 107 285 107 q 412 123 374 107 q 492 172 450 138 l 492 681 l 631 681 l 631 0 l 492 0 l 492 58 q 384 4 436 21 q 275 -14 332 -14 q 142 32 189 -14 q 96 163 96 78 l 96 681 m 309 904 q 325 864 309 881 q 364 847 342 847 q 403 864 387 847 q 420 904 420 881 q 404 943 420 927 q 364 960 387 960 q 325 943 341 960 q 309 904 309 927 m 249 904 q 282 986 249 952 q 364 1019 316 1019 q 446 986 412 1019 q 479 904 479 952 q 446 822 479 857 q 364 787 412 787 q 283 822 317 787 q 249 904 249 856 z "},"Ź":{"ha":685,"x_min":29,"x_max":650,"o":"m 57 926 l 629 926 l 629 810 l 184 118 l 650 118 l 650 0 l 29 0 l 29 119 l 473 808 l 57 808 l 57 926 m 288 1050 l 370 1246 l 521 1246 l 389 1050 l 288 1050 z "},"ź":{"ha":586,"x_min":37,"x_max":546,"o":"m 546 0 l 37 0 l 37 78 l 385 576 l 74 576 l 74 681 l 541 681 l 541 589 l 201 104 l 546 104 l 546 0 m 237 804 l 319 1000 l 471 1000 l 339 804 l 237 804 z "},"Ż":{"ha":685,"x_min":29,"x_max":650,"o":"m 57 926 l 629 926 l 629 810 l 184 118 l 650 118 l 650 0 l 29 0 l 29 119 l 473 808 l 57 808 l 57 926 m 343 1208 q 399 1184 375 1208 q 422 1129 422 1160 q 399 1073 422 1097 q 343 1050 376 1050 q 287 1073 311 1050 q 264 1129 264 1097 q 288 1184 264 1160 q 343 1208 311 1208 z "},"ż":{"ha":586,"x_min":37,"x_max":546,"o":"m 546 0 l 37 0 l 37 78 l 385 576 l 74 576 l 74 681 l 541 681 l 541 589 l 201 104 l 546 104 l 546 0 m 293 962 q 349 939 325 962 q 372 884 372 915 q 349 828 372 851 q 293 804 326 804 q 237 828 260 804 q 214 884 214 851 q 237 939 214 915 q 293 962 261 962 z "},"←":{"ha":1389,"x_min":87,"x_max":1301,"o":"m 1301 528 l 1301 408 l 307 408 l 521 139 l 399 139 l 87 468 l 399 798 l 521 798 l 307 528 l 1301 528 z "},"↑":{"ha":694,"x_min":18,"x_max":676,"o":"m 288 -139 l 288 856 l 18 642 l 18 764 l 347 1075 l 676 764 l 676 642 l 407 856 l 407 -139 l 288 -139 z "},"→":{"ha":1389,"x_min":87,"x_max":1301,"o":"m 87 528 l 1082 528 l 868 798 l 990 798 l 1301 468 l 990 139 l 868 139 l 1082 408 l 87 408 l 87 528 z "},"↓":{"ha":694,"x_min":18,"x_max":676,"o":"m 288 1075 l 407 1075 l 407 81 l 676 294 l 676 172 l 347 -139 l 18 172 l 18 294 l 288 81 l 288 1075 z "},"Ĳ":{"ha":798,"x_min":126,"x_max":671,"o":"m 126 926 l 272 926 l 272 0 l 126 0 l 126 926 m 300 -301 l 300 -179 q 467 -107 409 -172 q 525 72 525 -42 l 525 926 l 671 926 l 671 89 q 579 -203 671 -106 q 300 -301 487 -300 z "},"ĳ":{"ha":711,"x_min":109,"x_max":600,"o":"m 600 681 l 600 -81 q 547 -274 600 -204 q 403 -345 494 -345 q 331 -335 366 -345 q 261 -306 296 -325 l 296 -204 q 337 -220 319 -214 q 371 -225 356 -225 q 439 -187 418 -225 q 461 -68 461 -149 l 461 681 l 600 681 m 461 1000 l 600 1000 l 600 817 l 461 817 l 461 1000 m 109 1000 l 248 1000 l 248 817 l 109 817 l 109 1000 m 248 0 l 109 0 l 109 681 l 248 681 l 248 0 z "},"Ā":{"ha":810,"x_min":17,"x_max":793,"o":"m 554 267 l 245 267 l 158 0 l 17 0 l 336 926 l 473 926 l 793 0 l 642 0 l 554 267 m 515 383 l 400 733 l 285 383 l 515 383 m 232 1173 l 579 1173 l 579 1076 l 232 1076 l 232 1173 z "},"ā":{"ha":677,"x_min":52,"x_max":582,"o":"m 443 171 l 443 326 q 414 330 429 329 q 382 332 399 332 q 233 297 287 332 q 179 200 179 262 q 215 123 179 153 q 309 93 252 93 q 387 113 353 93 q 443 171 422 133 m 175 541 l 175 659 q 258 686 216 677 q 347 694 300 694 q 530 630 477 694 q 582 393 582 565 l 582 0 l 443 0 l 443 45 q 368 2 407 16 q 285 -12 329 -12 q 115 48 179 -12 q 52 211 52 109 q 135 372 52 315 q 372 429 218 429 q 406 429 389 429 q 443 427 422 428 l 443 458 q 416 556 443 528 q 326 583 390 583 q 249 573 286 583 q 175 541 212 562 m 165 928 l 513 928 l 513 831 l 165 831 l 165 928 z "},"Ĉ":{"ha":692,"x_min":68,"x_max":692,"o":"m 612 778 q 543 813 579 802 q 464 825 507 825 q 289 728 353 825 q 225 463 225 631 q 288 198 225 293 q 464 103 351 103 q 546 117 507 103 q 628 161 585 131 l 692 71 q 580 5 637 26 q 450 -16 522 -16 q 177 121 286 -16 q 68 463 68 257 q 178 805 68 671 q 460 940 289 940 q 578 922 523 940 q 689 867 634 905 l 612 778 m 503 1246 l 611 1051 l 525 1051 l 446 1148 l 365 1051 l 280 1051 l 389 1246 l 503 1246 z "},"ĉ":{"ha":585,"x_min":61,"x_max":585,"o":"m 585 78 q 480 8 533 29 q 359 -14 428 -14 q 144 84 227 -14 q 61 340 61 182 q 148 592 61 489 q 357 694 234 694 q 472 674 418 694 q 581 607 525 653 l 528 524 q 443 576 481 561 q 361 591 404 591 q 249 525 290 591 q 208 340 208 458 q 251 154 208 218 q 374 89 294 89 q 455 103 418 89 q 533 150 492 117 l 585 78 m 418 1000 l 526 806 l 440 806 l 361 903 l 280 806 l 195 806 l 304 1000 l 418 1000 z "},"Ċ":{"ha":692,"x_min":68,"x_max":692,"o":"m 612 778 q 543 813 579 802 q 464 825 507 825 q 289 728 353 825 q 225 463 225 631 q 288 198 225 293 q 464 103 351 103 q 546 117 507 103 q 628 161 585 131 l 692 71 q 580 5 637 26 q 450 -16 522 -16 q 177 121 286 -16 q 68 463 68 257 q 178 805 68 671 q 460 940 289 940 q 578 922 523 940 q 689 867 634 905 l 612 778 m 446 1208 q 501 1184 477 1208 q 525 1129 525 1160 q 502 1073 525 1097 q 446 1050 478 1050 q 390 1073 413 1050 q 366 1129 366 1097 q 390 1184 366 1160 q 446 1208 414 1208 z "},"ċ":{"ha":585,"x_min":61,"x_max":585,"o":"m 585 78 q 480 8 533 29 q 359 -14 428 -14 q 144 84 227 -14 q 61 340 61 182 q 148 592 61 489 q 357 694 234 694 q 472 674 418 694 q 581 607 525 653 l 528 524 q 443 576 481 561 q 361 591 404 591 q 249 525 290 591 q 208 340 208 458 q 251 154 208 218 q 374 89 294 89 q 455 103 418 89 q 533 150 492 117 l 585 78 m 361 962 q 416 939 393 962 q 440 884 440 915 q 417 828 440 851 q 361 804 393 804 q 305 828 328 804 q 281 884 281 851 q 305 939 281 915 q 361 962 329 962 z "},"Ē":{"ha":697,"x_min":126,"x_max":636,"o":"m 636 0 l 126 0 l 126 926 l 636 926 l 636 808 l 272 808 l 272 539 l 574 539 l 574 421 l 272 421 l 272 118 l 636 118 l 636 0 m 196 1173 l 543 1173 l 543 1076 l 196 1076 l 196 1173 z "},"ē":{"ha":701,"x_min":61,"x_max":640,"o":"m 621 96 q 495 13 558 39 q 359 -14 431 -14 q 143 84 225 -14 q 61 340 61 181 q 142 595 61 496 q 350 694 224 694 q 557 593 474 694 q 640 346 640 492 l 640 304 l 210 304 q 256 142 214 196 q 380 89 299 89 q 470 109 426 89 q 568 172 515 128 l 621 96 m 212 411 l 488 411 q 445 543 480 496 q 350 589 409 589 q 257 543 292 589 q 212 411 221 497 m 178 928 l 525 928 l 525 831 l 178 831 l 178 928 z "},"Ė":{"ha":697,"x_min":126,"x_max":636,"o":"m 636 0 l 126 0 l 126 926 l 636 926 l 636 808 l 272 808 l 272 539 l 574 539 l 574 421 l 272 421 l 272 118 l 636 118 l 636 0 m 370 1208 q 425 1184 401 1208 q 449 1129 449 1160 q 426 1073 449 1097 q 370 1050 402 1050 q 314 1073 337 1050 q 290 1129 290 1097 q 314 1184 290 1160 q 370 1208 338 1208 z "},"ė":{"ha":701,"x_min":61,"x_max":640,"o":"m 621 96 q 495 13 558 39 q 359 -14 431 -14 q 143 84 225 -14 q 61 340 61 181 q 142 595 61 496 q 350 694 224 694 q 557 593 474 694 q 640 346 640 492 l 640 304 l 210 304 q 256 142 214 196 q 380 89 299 89 q 470 109 426 89 q 568 172 515 128 l 621 96 m 212 411 l 488 411 q 445 543 480 496 q 350 589 409 589 q 257 543 292 589 q 212 411 221 497 m 351 962 q 407 939 383 962 q 431 884 431 915 q 407 828 431 851 q 351 804 384 804 q 295 828 319 804 q 272 884 272 851 q 296 939 272 915 q 351 962 319 962 z "},"Ĝ":{"ha":817,"x_min":68,"x_max":739,"o":"m 739 94 q 603 11 671 38 q 458 -16 534 -16 q 178 119 288 -16 q 68 463 68 254 q 177 804 68 668 q 450 940 287 940 q 595 916 532 940 q 721 838 659 892 l 647 751 q 556 808 598 791 q 464 825 514 825 q 289 728 353 825 q 225 463 225 631 q 292 196 225 293 q 473 98 359 98 q 546 110 514 98 q 603 144 577 121 l 603 401 l 416 401 l 416 519 l 739 519 l 739 94 m 465 1246 l 574 1051 l 488 1051 l 408 1148 l 328 1051 l 243 1051 l 351 1246 l 465 1246 z "},"ĝ":{"ha":733,"x_min":60,"x_max":624,"o":"m 485 165 l 485 528 q 419 571 454 555 q 354 587 384 587 q 244 520 281 587 q 207 321 207 452 q 243 161 207 217 q 345 104 279 104 q 415 119 380 104 q 485 165 449 134 m 485 58 q 405 3 446 20 q 311 -14 363 -14 q 129 76 197 -14 q 60 317 60 166 q 129 595 60 496 q 322 694 198 694 q 407 682 366 694 q 485 644 447 670 l 485 681 l 624 681 l 624 -75 q 552 -277 624 -210 q 334 -345 479 -345 q 174 -299 236 -345 q 87 -164 112 -253 l 216 -164 q 264 -214 233 -197 q 338 -231 295 -231 q 448 -190 411 -231 q 485 -69 485 -150 l 485 58 m 424 1000 l 532 806 l 446 806 l 367 903 l 286 806 l 201 806 l 310 1000 l 424 1000 z "},"Ġ":{"ha":817,"x_min":68,"x_max":739,"o":"m 739 94 q 603 11 671 38 q 458 -16 534 -16 q 178 119 288 -16 q 68 463 68 254 q 177 804 68 668 q 450 940 287 940 q 595 916 532 940 q 721 838 659 892 l 647 751 q 556 808 598 791 q 464 825 514 825 q 289 728 353 825 q 225 463 225 631 q 292 196 225 293 q 473 98 359 98 q 546 110 514 98 q 603 144 577 121 l 603 401 l 416 401 l 416 519 l 739 519 l 739 94 m 408 1208 q 464 1184 440 1208 q 488 1129 488 1160 q 464 1073 488 1097 q 408 1050 441 1050 q 352 1073 376 1050 q 329 1129 329 1097 q 353 1184 329 1160 q 408 1208 376 1208 z "},"ġ":{"ha":733,"x_min":60,"x_max":624,"o":"m 485 165 l 485 528 q 419 571 454 555 q 354 587 384 587 q 244 520 281 587 q 207 321 207 452 q 243 161 207 217 q 345 104 279 104 q 415 119 380 104 q 485 165 449 134 m 485 58 q 405 3 446 20 q 311 -14 363 -14 q 129 76 197 -14 q 60 317 60 166 q 129 595 60 496 q 322 694 198 694 q 407 682 366 694 q 485 644 447 670 l 485 681 l 624 681 l 624 -75 q 552 -277 624 -210 q 334 -345 479 -345 q 174 -299 236 -345 q 87 -164 112 -253 l 216 -164 q 264 -214 233 -197 q 338 -231 295 -231 q 448 -190 411 -231 q 485 -69 485 -150 l 485 58 m 367 962 q 422 939 399 962 q 446 884 446 915 q 423 828 446 851 q 367 804 399 804 q 311 828 334 804 q 288 884 288 851 q 311 939 288 915 q 367 962 335 962 z "},"Ģ":{"ha":817,"x_min":68,"x_max":739,"o":"m 739 94 q 603 11 671 38 q 458 -16 534 -16 q 178 119 288 -16 q 68 463 68 254 q 177 804 68 668 q 450 940 287 940 q 595 916 532 940 q 721 838 659 892 l 647 751 q 556 808 598 791 q 464 825 514 825 q 289 728 353 825 q 225 463 225 631 q 292 196 225 293 q 473 98 359 98 q 546 110 514 98 q 603 144 577 121 l 603 401 l 416 401 l 416 519 l 739 519 l 739 94 m 305 -123 l 401 0 l 472 0 l 400 -89 l 403 -92 q 427 -86 416 -88 q 448 -85 438 -85 q 531 -112 500 -85 q 562 -184 562 -140 q 513 -280 562 -244 q 380 -317 463 -317 q 314 -309 347 -317 q 254 -288 281 -302 l 281 -233 q 328 -249 305 -243 q 372 -254 351 -254 q 435 -240 414 -254 q 457 -197 457 -225 q 437 -156 457 -172 q 385 -140 418 -140 q 357 -143 371 -140 q 329 -153 344 -146 l 305 -123 z "},"ģ":{"ha":733,"x_min":60,"x_max":624,"o":"m 485 58 q 405 3 446 20 q 311 -14 363 -14 q 129 76 197 -14 q 60 317 60 166 q 129 595 60 496 q 322 694 198 694 q 407 682 366 694 q 485 644 447 670 l 485 681 l 624 681 l 624 3 q 558 -192 624 -119 q 387 -265 492 -265 l 380 -265 l 329 -328 l 332 -330 q 356 -325 345 -327 q 378 -323 368 -323 q 460 -351 429 -323 q 492 -424 492 -379 q 442 -519 492 -483 q 310 -555 392 -555 q 243 -548 275 -555 q 183 -526 211 -541 l 210 -472 q 258 -488 235 -483 q 301 -493 281 -493 q 365 -478 343 -493 q 386 -436 386 -464 q 367 -395 386 -410 q 314 -379 347 -379 q 287 -382 300 -379 q 258 -392 273 -385 l 235 -363 l 311 -265 l 306 -265 q 168 -216 229 -265 q 87 -86 107 -167 l 216 -86 q 264 -136 233 -119 q 338 -153 295 -153 q 448 -112 411 -153 q 485 8 485 -72 l 485 58 m 485 165 l 485 528 q 419 571 454 555 q 354 587 384 587 q 244 520 281 587 q 207 321 207 452 q 243 161 207 217 q 345 104 279 104 q 415 119 380 104 q 485 165 449 134 z "},"Ĥ":{"ha":869,"x_min":126,"x_max":743,"o":"m 743 0 l 597 0 l 597 421 l 272 421 l 272 0 l 126 0 l 126 926 l 272 926 l 272 539 l 597 539 l 597 926 l 743 926 l 743 0 m 492 1246 l 600 1051 l 514 1051 l 435 1148 l 354 1051 l 269 1051 l 378 1246 l 492 1246 z "},"ĥ":{"ha":739,"x_min":11,"x_max":643,"o":"m 643 0 l 504 0 l 504 473 q 479 548 504 523 q 406 574 454 574 q 327 558 365 574 q 248 509 289 543 l 248 0 l 109 0 l 109 1000 l 248 1000 l 248 623 q 355 677 303 660 q 464 694 407 694 q 596 648 549 694 q 643 518 643 602 l 643 0 m 233 1306 l 342 1112 l 256 1112 l 176 1208 l 96 1112 l 11 1112 l 119 1306 l 233 1306 z "},"Ħ":{"ha":869,"x_min":41,"x_max":828,"o":"m 272 694 l 272 539 l 597 539 l 597 694 l 272 694 m 126 694 l 41 694 l 41 799 l 126 799 l 126 926 l 272 926 l 272 799 l 597 799 l 597 926 l 743 926 l 743 799 l 828 799 l 828 694 l 743 694 l 743 0 l 597 0 l 597 421 l 272 421 l 272 0 l 126 0 l 126 694 z "},"ħ":{"ha":739,"x_min":24,"x_max":643,"o":"m 643 0 l 504 0 l 504 473 q 479 548 504 523 q 406 574 454 574 q 327 558 365 574 q 248 509 289 543 l 248 0 l 109 0 l 109 803 l 24 803 l 24 893 l 109 893 l 109 1000 l 248 1000 l 248 893 l 496 893 l 496 803 l 248 803 l 248 623 q 355 677 303 660 q 464 694 407 694 q 596 648 549 694 q 643 518 643 602 l 643 0 z "},"Ĩ":{"ha":399,"x_min":-4,"x_max":404,"o":"m 126 926 l 272 926 l 272 0 l 126 0 l 126 926 m 339 1204 l 404 1204 q 373 1089 404 1130 q 286 1048 342 1048 q 194 1076 256 1048 q 110 1104 133 1104 q 76 1089 88 1104 q 61 1046 64 1075 l -4 1046 q 35 1160 5 1122 q 117 1198 65 1198 q 208 1171 147 1198 q 292 1143 269 1143 q 326 1158 314 1143 q 339 1204 337 1173 z "},"ĩ":{"ha":355,"x_min":-26,"x_max":382,"o":"m 248 0 l 109 0 l 109 681 l 248 681 l 248 0 m 317 958 l 382 958 q 351 844 382 884 q 264 803 320 803 q 172 831 233 803 q 87 859 111 859 q 54 844 66 859 q 39 800 42 829 l -26 800 q 13 915 -17 877 q 94 953 43 953 q 185 925 125 953 q 269 897 246 897 q 303 912 292 897 q 317 958 315 928 z "},"Ī":{"ha":399,"x_min":26,"x_max":374,"o":"m 126 926 l 272 926 l 272 0 l 126 0 l 126 926 m 26 1173 l 374 1173 l 374 1076 l 26 1076 l 26 1173 z "},"ī":{"ha":355,"x_min":4,"x_max":351,"o":"m 248 0 l 109 0 l 109 681 l 248 681 l 248 0 m 4 928 l 351 928 l 351 831 l 4 831 l 4 928 z "},"Į":{"ha":399,"x_min":111,"x_max":469,"o":"m 435 -157 l 469 -232 q 394 -271 433 -258 q 315 -283 355 -283 q 169 -227 226 -283 q 111 -82 111 -170 q 115 -41 111 -62 q 126 1 119 -21 l 126 926 l 272 926 l 272 0 l 239 0 q 222 -39 228 -19 q 216 -79 216 -59 q 249 -161 216 -130 q 332 -193 281 -193 q 384 -184 357 -193 q 435 -157 410 -174 z "},"į":{"ha":355,"x_min":93,"x_max":452,"o":"m 416 -157 l 452 -232 q 376 -271 414 -258 q 297 -283 337 -283 q 150 -227 208 -283 q 93 -82 93 -170 q 97 -41 93 -62 q 109 1 101 -20 l 109 681 l 248 681 l 248 0 l 221 0 q 204 -39 210 -20 q 199 -79 199 -58 q 230 -162 199 -130 q 314 -193 262 -193 q 366 -184 339 -193 q 416 -157 392 -174 m 109 1000 l 248 1000 l 248 817 l 109 817 l 109 1000 z "},"Ĵ":{"ha":399,"x_min":-98,"x_max":366,"o":"m -98 -301 l -98 -179 q 68 -107 10 -172 q 126 72 126 -42 l 126 926 l 272 926 l 272 89 q 180 -203 272 -106 q -98 -301 87 -300 m 257 1246 l 366 1051 l 279 1051 l 200 1148 l 119 1051 l 35 1051 l 143 1246 l 257 1246 z "},"ĵ":{"ha":355,"x_min":-94,"x_max":343,"o":"m 244 681 l 244 -81 q 192 -274 244 -204 q 47 -345 139 -345 q -25 -335 10 -345 q -94 -306 -60 -325 l -60 -204 q -18 -220 -37 -214 q 16 -225 1 -225 q 84 -187 62 -225 q 106 -68 106 -149 l 106 681 l 244 681 m 235 1000 l 343 806 l 257 806 l 178 903 l 97 806 l 12 806 l 121 1000 l 235 1000 z "},"Ķ":{"ha":766,"x_min":126,"x_max":766,"o":"m 272 461 l 272 0 l 126 0 l 126 926 l 272 926 l 272 521 l 590 926 l 757 926 l 415 493 l 766 0 l 591 0 l 272 461 m 280 -123 l 376 0 l 447 0 l 375 -89 l 378 -92 q 402 -86 391 -88 q 423 -85 413 -85 q 506 -112 475 -85 q 537 -184 537 -140 q 488 -280 537 -244 q 355 -317 438 -317 q 289 -309 321 -317 q 229 -288 256 -302 l 256 -233 q 303 -249 280 -243 q 347 -254 326 -254 q 410 -240 389 -254 q 432 -197 432 -225 q 412 -156 432 -172 q 359 -140 393 -140 q 332 -143 346 -140 q 304 -153 319 -146 l 280 -123 z "},"ķ":{"ha":672,"x_min":109,"x_max":684,"o":"m 248 354 l 248 0 l 109 0 l 109 1000 l 248 1000 l 248 410 l 478 681 l 637 681 l 383 383 l 684 0 l 517 0 l 248 354 m 233 -123 l 330 0 l 400 0 l 328 -89 l 331 -92 q 355 -86 344 -88 q 376 -85 366 -85 q 459 -112 428 -85 q 490 -184 490 -140 q 441 -280 490 -244 q 309 -317 391 -317 q 242 -309 275 -317 q 182 -288 210 -302 l 209 -233 q 256 -249 233 -243 q 300 -254 279 -254 q 363 -240 342 -254 q 385 -197 385 -225 q 366 -156 385 -172 q 313 -140 346 -140 q 286 -143 299 -140 q 257 -153 272 -146 l 233 -123 z "},"ĸ":{"ha":672,"x_min":109,"x_max":684,"o":"m 517 0 l 248 354 l 248 0 l 109 0 l 109 681 l 248 681 l 248 410 l 478 681 l 637 681 l 383 383 l 684 0 l 517 0 z "},"Ļ":{"ha":624,"x_min":126,"x_max":608,"o":"m 248 -123 l 343 0 l 126 0 l 126 926 l 272 926 l 272 118 l 608 118 l 608 0 l 414 0 l 342 -89 l 345 -92 q 369 -86 357 -88 q 390 -85 380 -85 q 473 -113 441 -85 q 505 -184 505 -140 q 455 -280 505 -244 q 322 -317 405 -317 q 256 -309 288 -317 q 196 -288 223 -302 l 222 -233 q 270 -249 248 -243 q 314 -254 293 -254 q 377 -240 355 -254 q 399 -197 399 -225 q 379 -156 399 -172 q 326 -140 359 -140 q 299 -143 313 -140 q 271 -153 286 -146 l 248 -123 z "},"ļ":{"ha":386,"x_min":98,"x_max":415,"o":"m 157 -123 l 244 -11 l 239 -11 q 134 48 170 -11 q 98 222 98 108 l 98 1000 l 237 1000 l 237 237 q 255 127 237 158 q 317 96 273 96 q 338 98 327 96 q 363 104 350 100 l 397 12 q 354 -3 374 3 q 315 -11 334 -9 l 252 -89 l 256 -92 q 279 -86 269 -88 q 300 -85 290 -85 q 383 -113 351 -85 q 415 -184 415 -140 q 365 -280 415 -244 q 232 -317 315 -317 q 166 -309 198 -317 q 107 -288 135 -302 l 134 -233 q 181 -249 158 -243 q 225 -254 204 -254 q 288 -240 267 -254 q 309 -197 309 -225 q 290 -156 309 -171 q 237 -140 271 -140 q 211 -143 224 -140 q 182 -153 197 -146 l 157 -123 z "},"Ľ":{"ha":624,"x_min":31,"x_max":608,"o":"m 608 0 l 126 0 l 126 926 l 272 926 l 272 118 l 608 118 l 608 0 m 253 1051 l 139 1051 l 31 1246 l 115 1246 l 196 1148 l 275 1246 l 361 1246 l 253 1051 z "},"ľ":{"ha":386,"x_min":9,"x_max":397,"o":"m 397 12 q 339 -7 368 -1 q 279 -14 311 -14 q 140 40 182 -14 q 98 222 98 93 l 98 1000 l 237 1000 l 237 237 q 255 127 237 158 q 317 96 273 96 q 338 98 327 96 q 363 104 350 100 l 397 12 m 232 1112 l 118 1112 l 9 1306 l 94 1306 l 175 1208 l 254 1306 l 340 1306 l 232 1112 z "},"Ņ":{"ha":922,"x_min":126,"x_max":796,"o":"m 126 0 l 126 926 l 290 926 l 650 253 l 650 926 l 796 926 l 796 0 l 635 0 l 272 682 l 272 0 l 126 0 m 363 -123 l 460 0 l 530 0 l 458 -89 l 461 -92 q 485 -86 474 -88 q 507 -85 496 -85 q 589 -112 558 -85 q 621 -184 621 -140 q 571 -280 621 -244 q 439 -317 522 -317 q 372 -309 405 -317 q 313 -288 340 -302 l 339 -233 q 387 -249 363 -243 q 431 -254 410 -254 q 494 -240 472 -254 q 515 -197 515 -225 q 496 -156 515 -172 q 443 -140 476 -140 q 416 -143 429 -140 q 387 -153 402 -146 l 363 -123 z "},"ņ":{"ha":739,"x_min":109,"x_max":643,"o":"m 643 0 l 504 0 l 504 473 q 479 548 504 523 q 406 574 454 574 q 327 558 365 574 q 248 509 289 543 l 248 0 l 109 0 l 109 681 l 248 681 l 248 623 q 355 677 303 660 q 464 694 407 694 q 596 648 549 694 q 643 518 643 602 l 643 0 m 276 -123 l 372 0 l 443 0 l 371 -89 l 374 -92 q 398 -86 387 -88 q 419 -85 409 -85 q 502 -112 471 -85 q 533 -184 533 -140 q 484 -280 533 -244 q 351 -317 434 -317 q 285 -309 317 -317 q 225 -288 252 -302 l 252 -233 q 299 -249 276 -243 q 343 -254 322 -254 q 406 -240 385 -254 q 428 -197 428 -225 q 408 -156 428 -172 q 355 -140 389 -140 q 328 -143 342 -140 q 300 -153 315 -146 l 276 -123 z "},"Ŗ":{"ha":799,"x_min":126,"x_max":799,"o":"m 507 429 l 799 0 l 628 0 l 349 411 l 272 411 l 272 0 l 126 0 l 126 926 l 375 926 q 612 863 536 926 q 688 665 688 800 q 643 515 688 574 q 507 429 597 456 m 272 525 l 358 525 q 496 559 450 525 q 542 663 542 594 q 500 773 542 736 q 374 810 458 810 l 272 810 l 272 525 m 297 -123 l 393 0 l 464 0 l 392 -89 l 395 -92 q 419 -86 408 -88 q 440 -85 430 -85 q 523 -112 492 -85 q 554 -184 554 -140 q 505 -280 554 -244 q 372 -317 455 -317 q 306 -309 338 -317 q 246 -288 273 -302 l 273 -233 q 320 -249 297 -243 q 364 -254 343 -254 q 427 -240 406 -254 q 449 -197 449 -225 q 429 -156 449 -172 q 376 -140 410 -140 q 349 -143 363 -140 q 321 -153 336 -146 l 297 -123 z "},"ŗ":{"ha":481,"x_min":20,"x_max":492,"o":"m 71 -123 l 167 0 l 109 0 l 109 681 l 248 681 l 248 603 l 290 640 q 348 680 322 669 q 406 692 374 692 q 447 685 425 692 q 492 664 468 678 l 447 542 q 414 550 430 547 q 379 553 397 553 q 311 537 341 553 q 248 484 280 521 l 248 0 l 237 0 l 165 -89 l 168 -92 q 192 -86 181 -88 q 214 -85 203 -85 q 296 -112 265 -85 q 328 -184 328 -140 q 277 -280 328 -244 q 144 -317 227 -317 q 79 -309 111 -317 q 20 -288 47 -302 l 46 -233 q 94 -249 71 -243 q 138 -254 117 -254 q 201 -240 179 -254 q 222 -197 222 -225 q 203 -156 222 -172 q 150 -140 183 -140 q 123 -143 136 -140 q 94 -153 109 -146 l 71 -123 z "},"Ŋ":{"ha":922,"x_min":126,"x_max":796,"o":"m 650 -28 l 272 682 l 272 0 l 126 0 l 126 926 l 290 926 l 650 253 l 650 926 l 796 926 l 796 -81 q 744 -275 796 -205 q 600 -345 692 -345 q 530 -334 567 -345 q 458 -306 493 -324 l 494 -205 q 535 -221 517 -216 q 568 -227 553 -227 q 630 -191 611 -227 q 650 -78 650 -156 l 650 -28 z "},"ŋ":{"ha":739,"x_min":109,"x_max":643,"o":"m 643 518 l 643 -81 q 591 -275 643 -205 q 446 -345 538 -345 q 375 -335 409 -345 q 306 -306 342 -326 l 339 -214 q 378 -229 361 -224 q 414 -233 396 -233 q 481 -195 459 -233 q 504 -78 504 -157 l 504 473 q 479 548 504 523 q 406 574 454 574 q 329 558 367 574 q 248 509 292 543 l 248 0 l 109 0 l 109 681 l 248 681 l 248 623 q 358 677 306 660 q 464 694 410 694 q 598 650 553 694 q 643 518 643 606 z "},"Ō":{"ha":900,"x_min":68,"x_max":832,"o":"m 450 822 q 287 725 348 822 q 225 463 225 627 q 287 201 225 298 q 450 103 348 103 q 613 201 551 103 q 675 463 675 299 q 613 724 675 627 q 450 822 552 822 m 450 940 q 723 805 614 940 q 832 463 832 669 q 724 120 832 255 q 450 -16 615 -16 q 177 121 286 -16 q 68 463 68 257 q 177 804 68 668 q 450 940 286 940 m 277 1173 l 624 1173 l 624 1076 l 277 1076 l 277 1173 z "},"ō":{"ha":700,"x_min":61,"x_max":639,"o":"m 350 589 q 245 524 283 589 q 208 340 208 459 q 246 157 208 222 q 350 92 283 92 q 455 156 418 92 q 492 340 492 221 q 454 524 492 459 q 350 589 417 589 m 350 694 q 557 595 476 694 q 639 340 639 496 q 557 86 639 185 q 350 -14 476 -14 q 143 86 224 -14 q 61 340 61 185 q 142 595 61 496 q 350 694 224 694 m 176 928 l 524 928 l 524 831 l 176 831 l 176 928 z "},"Ŝ":{"ha":739,"x_min":47,"x_max":677,"o":"m 103 191 q 225 125 167 145 q 349 106 283 106 q 478 144 431 106 q 525 252 525 183 q 494 335 525 300 q 404 390 464 370 l 315 421 q 117 525 172 468 q 62 677 62 583 q 145 875 62 801 q 367 949 229 949 q 506 928 438 949 q 640 864 573 907 l 585 761 q 477 807 532 791 q 370 823 422 823 q 255 788 296 823 q 215 686 215 752 q 240 618 215 646 q 318 572 264 590 l 408 543 q 617 426 557 494 q 677 249 677 359 q 587 59 677 134 q 353 -16 496 -16 q 195 7 269 -16 q 47 79 121 31 l 103 191 m 427 1246 l 535 1051 l 449 1051 l 370 1148 l 289 1051 l 204 1051 l 313 1246 l 427 1246 z "},"ŝ":{"ha":623,"x_min":39,"x_max":558,"o":"m 39 56 l 89 160 q 193 113 140 130 q 297 97 247 97 q 380 121 350 97 q 411 187 411 146 q 391 236 411 216 q 332 269 371 257 l 257 293 q 106 373 146 329 q 66 492 66 417 q 137 638 66 583 q 323 694 208 694 q 422 679 370 694 q 532 633 475 664 l 488 534 q 401 574 441 562 q 323 586 362 586 q 242 562 273 586 q 211 498 211 538 q 230 452 211 471 q 286 421 249 432 l 359 397 q 520 316 481 358 q 558 200 558 273 q 486 47 558 106 q 298 -11 414 -11 q 167 6 232 -11 q 39 56 102 22 m 368 1000 l 477 806 l 391 806 l 311 903 l 231 806 l 146 806 l 254 1000 l 368 1000 z "},"Ţ":{"ha":682,"x_min":22,"x_max":660,"o":"m 218 -123 l 314 0 l 268 0 l 268 808 l 22 808 l 22 926 l 660 926 l 660 808 l 414 808 l 414 0 l 386 0 l 313 -89 l 317 -92 q 341 -86 330 -88 q 361 -85 351 -85 q 444 -113 412 -85 q 476 -184 476 -140 q 426 -280 476 -244 q 293 -317 376 -317 q 228 -309 259 -317 q 168 -288 196 -302 l 195 -233 q 242 -249 220 -243 q 286 -254 265 -254 q 349 -240 328 -254 q 370 -197 370 -225 q 351 -156 370 -171 q 298 -140 332 -140 q 272 -143 286 -140 q 243 -153 258 -146 l 218 -123 z "},"ţ":{"ha":478,"x_min":16,"x_max":478,"o":"m 208 -123 l 296 -11 l 290 -11 q 176 47 214 -11 q 139 222 139 104 l 139 576 l 16 576 l 16 681 l 139 681 l 139 926 l 278 926 l 278 681 l 443 681 l 443 576 l 278 576 l 278 237 q 296 127 278 159 q 357 96 314 96 q 400 101 378 96 q 444 117 421 106 l 478 25 q 421 2 448 11 q 368 -10 393 -7 l 304 -89 l 307 -92 q 331 -86 320 -88 q 351 -85 341 -85 q 435 -113 403 -85 q 467 -184 467 -140 q 416 -280 467 -244 q 283 -317 366 -317 q 218 -309 250 -317 q 158 -288 186 -302 l 184 -233 q 233 -249 210 -243 q 277 -254 256 -254 q 338 -240 317 -254 q 359 -197 359 -225 q 341 -156 359 -171 q 289 -140 322 -140 q 262 -143 275 -140 q 233 -153 248 -146 l 208 -123 z "},"ť":{"ha":478,"x_min":16,"x_max":478,"o":"m 444 117 l 478 25 q 401 -4 440 5 q 323 -14 363 -14 q 181 39 224 -14 q 139 222 139 92 l 139 576 l 16 576 l 16 681 l 139 681 l 139 926 l 278 926 l 278 681 l 443 681 l 443 576 l 278 576 l 278 237 q 296 127 278 159 q 357 96 314 96 q 400 101 378 96 q 444 117 421 106 m 265 1038 l 151 1038 l 43 1232 l 127 1232 l 208 1135 l 288 1232 l 374 1232 l 265 1038 z "},"Ŧ":{"ha":682,"x_min":22,"x_max":660,"o":"m 22 926 l 660 926 l 660 808 l 414 808 l 414 485 l 585 485 l 585 380 l 414 380 l 414 0 l 268 0 l 268 380 l 98 380 l 98 485 l 268 485 l 268 808 l 22 808 l 22 926 z "},"ŧ":{"ha":478,"x_min":16,"x_max":478,"o":"m 444 117 l 478 25 q 401 -4 440 5 q 323 -14 363 -14 q 181 39 224 -14 q 139 222 139 92 l 139 319 l 22 319 l 22 410 l 139 410 l 139 576 l 16 576 l 16 681 l 139 681 l 139 926 l 278 926 l 278 681 l 443 681 l 443 576 l 278 576 l 278 410 l 436 410 l 436 319 l 278 319 l 278 237 q 296 127 278 159 q 357 96 314 96 q 400 101 378 96 q 444 117 421 106 z "},"Ũ":{"ha":864,"x_min":113,"x_max":751,"o":"m 606 261 l 606 926 l 751 926 l 751 236 q 666 53 751 119 q 432 -14 581 -14 q 197 53 281 -14 q 113 236 113 119 l 113 926 l 258 926 l 258 261 q 302 144 258 183 q 432 104 345 104 q 562 144 518 104 q 606 261 606 183 m 571 1204 l 636 1204 q 605 1089 636 1130 q 518 1048 574 1048 q 426 1076 488 1048 q 342 1104 365 1104 q 308 1089 320 1104 q 293 1046 296 1075 l 228 1046 q 267 1160 237 1122 q 349 1198 297 1198 q 440 1171 379 1198 q 524 1143 500 1143 q 557 1158 546 1143 q 571 1204 569 1173 z "},"ũ":{"ha":739,"x_min":96,"x_max":631,"o":"m 96 681 l 235 681 l 235 207 q 260 132 235 157 q 334 107 285 107 q 412 123 374 107 q 492 172 450 138 l 492 681 l 631 681 l 631 0 l 492 0 l 492 58 q 384 4 436 21 q 275 -14 332 -14 q 142 32 189 -14 q 96 163 96 78 l 96 681 m 503 958 l 568 958 q 537 844 568 884 q 450 803 507 803 q 358 831 420 803 q 274 859 297 859 q 240 844 252 859 q 225 800 229 829 l 160 800 q 199 915 170 877 q 281 953 229 953 q 372 925 311 953 q 456 897 433 897 q 490 912 478 897 q 503 958 501 928 z "},"Ū":{"ha":864,"x_min":113,"x_max":751,"o":"m 606 261 l 606 926 l 751 926 l 751 236 q 666 53 751 119 q 432 -14 581 -14 q 197 53 281 -14 q 113 236 113 119 l 113 926 l 258 926 l 258 261 q 302 144 258 183 q 432 104 345 104 q 562 144 518 104 q 606 261 606 183 m 258 1173 l 606 1173 l 606 1076 l 258 1076 l 258 1173 z "},"ū":{"ha":739,"x_min":96,"x_max":631,"o":"m 96 681 l 235 681 l 235 207 q 260 132 235 157 q 334 107 285 107 q 412 123 374 107 q 492 172 450 138 l 492 681 l 631 681 l 631 0 l 492 0 l 492 58 q 384 4 436 21 q 275 -14 332 -14 q 142 32 189 -14 q 96 163 96 78 l 96 681 m 191 928 l 538 928 l 538 831 l 191 831 l 191 928 z "},"Ŭ":{"ha":864,"x_min":113,"x_max":751,"o":"m 606 261 l 606 926 l 751 926 l 751 236 q 666 53 751 119 q 432 -14 581 -14 q 197 53 281 -14 q 113 236 113 119 l 113 926 l 258 926 l 258 261 q 302 144 258 183 q 432 104 345 104 q 562 144 518 104 q 606 261 606 183 m 267 1232 l 338 1232 q 364 1163 341 1185 q 432 1141 387 1141 q 499 1163 477 1141 q 526 1232 522 1184 l 597 1232 q 555 1097 596 1142 q 432 1051 513 1051 q 309 1097 351 1051 q 267 1232 268 1142 z "},"ŭ":{"ha":739,"x_min":96,"x_max":631,"o":"m 96 681 l 235 681 l 235 207 q 260 132 235 157 q 334 107 285 107 q 412 123 374 107 q 492 172 450 138 l 492 681 l 631 681 l 631 0 l 492 0 l 492 58 q 384 4 436 21 q 275 -14 332 -14 q 142 32 189 -14 q 96 163 96 78 l 96 681 m 199 986 l 271 986 q 296 918 273 940 q 364 896 319 896 q 432 917 410 896 q 458 986 454 939 l 529 986 q 487 851 528 897 q 364 806 446 806 q 241 851 283 806 q 199 986 200 897 z "},"Ų":{"ha":864,"x_min":113,"x_max":751,"o":"m 606 261 l 606 926 l 751 926 l 751 236 q 680 64 751 131 q 485 -11 608 -2 q 473 -47 477 -30 q 469 -79 469 -64 q 501 -162 469 -130 q 585 -193 533 -193 q 636 -184 610 -193 q 688 -157 663 -174 l 722 -232 q 647 -271 685 -258 q 568 -283 608 -283 q 421 -227 479 -283 q 364 -82 364 -170 q 367 -44 364 -61 q 375 -11 370 -26 q 183 66 253 -1 q 113 236 113 132 l 113 926 l 258 926 l 258 261 q 302 144 258 183 q 432 104 345 104 q 562 144 518 104 q 606 261 606 183 z "},"ų":{"ha":739,"x_min":96,"x_max":835,"o":"m 96 681 l 235 681 l 235 207 q 260 132 235 157 q 334 107 285 107 q 412 123 374 107 q 492 172 450 138 l 492 681 l 631 681 l 631 0 l 604 0 q 588 -41 593 -21 q 582 -79 582 -61 q 614 -162 582 -130 q 697 -193 646 -193 q 749 -184 722 -193 q 800 -157 775 -174 l 835 -232 q 759 -271 798 -258 q 681 -283 721 -283 q 534 -227 591 -283 q 476 -82 476 -170 q 480 -39 476 -58 q 492 1 484 -19 l 492 58 q 384 4 436 21 q 275 -14 332 -14 q 142 32 189 -14 q 96 163 96 78 l 96 681 z "},"Ǎ":{"ha":810,"x_min":17,"x_max":793,"o":"m 554 267 l 245 267 l 158 0 l 17 0 l 336 926 l 473 926 l 793 0 l 642 0 l 554 267 m 515 383 l 400 733 l 285 383 l 515 383 m 463 1051 l 349 1051 l 240 1246 l 325 1246 l 406 1148 l 485 1246 l 571 1246 l 463 1051 z "},"ǎ":{"ha":677,"x_min":52,"x_max":582,"o":"m 443 171 l 443 326 q 414 330 429 329 q 382 332 399 332 q 233 297 287 332 q 179 200 179 262 q 215 123 179 153 q 309 93 252 93 q 387 113 353 93 q 443 171 422 133 m 175 541 l 175 659 q 258 686 216 677 q 347 694 300 694 q 530 630 477 694 q 582 393 582 565 l 582 0 l 443 0 l 443 45 q 368 2 407 16 q 285 -12 329 -12 q 115 48 179 -12 q 52 211 52 109 q 135 372 52 315 q 372 429 218 429 q 406 429 389 429 q 443 427 422 428 l 443 458 q 416 556 443 528 q 326 583 390 583 q 249 573 286 583 q 175 541 212 562 m 396 806 l 282 806 l 174 1000 l 258 1000 l 339 903 l 418 1000 l 505 1000 l 396 806 z "},"Ŵ":{"ha":1122,"x_min":17,"x_max":1105,"o":"m 561 509 l 396 0 l 248 0 l 17 926 l 165 926 l 332 193 l 503 729 l 621 729 l 790 193 l 970 926 l 1105 926 l 875 0 l 726 0 l 561 509 m 618 1246 l 726 1051 l 640 1051 l 561 1148 l 480 1051 l 395 1051 l 504 1246 l 618 1246 z "},"ŵ":{"ha":925,"x_min":17,"x_max":908,"o":"m 463 489 l 322 0 l 212 0 l 17 681 l 153 681 l 271 220 l 401 681 l 530 681 l 663 220 l 779 681 l 908 681 l 714 0 l 604 0 l 463 489 m 519 1000 l 628 806 l 542 806 l 463 903 l 382 806 l 297 806 l 406 1000 l 519 1000 z "},"Ŷ":{"ha":747,"x_min":18,"x_max":730,"o":"m 301 359 l 18 926 l 172 926 l 376 515 l 583 926 l 730 926 l 447 359 l 447 0 l 301 0 l 301 359 m 431 1246 l 539 1051 l 453 1051 l 374 1148 l 293 1051 l 208 1051 l 317 1246 l 431 1246 z "},"ŷ":{"ha":643,"x_min":17,"x_max":627,"o":"m 258 -20 l 17 681 l 160 681 l 325 172 l 497 681 l 627 681 l 376 -41 q 270 -235 331 -171 q 109 -329 210 -299 l 61 -239 q 189 -154 140 -208 q 258 -20 237 -100 m 379 1000 l 488 806 l 401 806 l 322 903 l 241 806 l 157 806 l 265 1000 l 379 1000 z "},"Ẁ":{"ha":1122,"x_min":17,"x_max":1105,"o":"m 561 509 l 396 0 l 248 0 l 17 926 l 165 926 l 332 193 l 503 729 l 621 729 l 790 193 l 970 926 l 1105 926 l 875 0 l 726 0 l 561 509 m 616 1051 l 515 1051 l 383 1246 l 534 1246 l 616 1051 z "},"ẁ":{"ha":925,"x_min":17,"x_max":908,"o":"m 463 489 l 322 0 l 212 0 l 17 681 l 153 681 l 271 220 l 401 681 l 530 681 l 663 220 l 779 681 l 908 681 l 714 0 l 604 0 l 463 489 m 518 806 l 416 806 l 285 1000 l 436 1000 l 518 806 z "},"Ẃ":{"ha":1122,"x_min":17,"x_max":1105,"o":"m 561 509 l 396 0 l 248 0 l 17 926 l 165 926 l 332 193 l 503 729 l 621 729 l 790 193 l 970 926 l 1105 926 l 875 0 l 726 0 l 561 509 m 505 1050 l 587 1246 l 739 1246 l 607 1050 l 505 1050 z "},"ẃ":{"ha":925,"x_min":17,"x_max":908,"o":"m 463 489 l 322 0 l 212 0 l 17 681 l 153 681 l 271 220 l 401 681 l 530 681 l 663 220 l 779 681 l 908 681 l 714 0 l 604 0 l 463 489 m 407 804 l 489 1000 l 640 1000 l 509 804 l 407 804 z "},"Ẅ":{"ha":1122,"x_min":17,"x_max":1105,"o":"m 561 509 l 396 0 l 248 0 l 17 926 l 165 926 l 332 193 l 503 729 l 621 729 l 790 193 l 970 926 l 1105 926 l 875 0 l 726 0 l 561 509 m 701 1208 q 757 1184 733 1208 q 781 1129 781 1161 q 757 1073 781 1097 q 701 1050 733 1050 q 645 1073 669 1050 q 622 1129 622 1097 q 646 1184 622 1160 q 701 1208 669 1208 m 420 1208 q 476 1184 452 1208 q 500 1129 500 1161 q 476 1073 500 1097 q 420 1050 452 1050 q 365 1073 389 1050 q 341 1129 341 1097 q 365 1184 341 1160 q 420 1208 389 1208 z "},"ẅ":{"ha":925,"x_min":17,"x_max":908,"o":"m 463 489 l 322 0 l 212 0 l 17 681 l 153 681 l 271 220 l 401 681 l 530 681 l 663 220 l 779 681 l 908 681 l 714 0 l 604 0 l 463 489 m 603 962 q 659 939 635 962 q 682 884 682 916 q 659 828 682 851 q 603 804 635 804 q 547 828 570 804 q 524 884 524 851 q 547 939 524 915 q 603 962 571 962 m 322 962 q 378 939 354 962 q 401 884 401 916 q 378 828 401 851 q 322 804 354 804 q 267 828 290 804 q 243 884 243 851 q 267 939 243 915 q 322 962 290 962 z "},"Ỳ":{"ha":747,"x_min":18,"x_max":730,"o":"m 301 359 l 18 926 l 172 926 l 376 515 l 583 926 l 730 926 l 447 359 l 447 0 l 301 0 l 301 359 m 429 1051 l 328 1051 l 196 1246 l 347 1246 l 429 1051 z "},"ỳ":{"ha":643,"x_min":17,"x_max":627,"o":"m 258 -20 l 17 681 l 160 681 l 325 172 l 497 681 l 627 681 l 376 -41 q 270 -235 331 -171 q 109 -329 210 -299 l 61 -239 q 189 -154 140 -208 q 258 -20 237 -100 m 378 806 l 276 806 l 144 1000 l 296 1000 l 378 806 z "},"­":{"ha":515,"x_min":78,"x_max":437,"o":"m 78 314 l 78 444 l 437 444 l 437 314 l 78 314 z "},"€":{"ha":815,"x_min":28,"x_max":761,"o":"m 682 778 q 612 813 648 802 q 533 825 576 825 q 390 767 449 825 q 309 602 331 708 l 673 602 l 673 525 l 297 525 q 296 512 297 521 q 294 463 294 476 q 296 416 294 450 q 297 401 297 406 l 673 401 l 673 325 l 309 325 q 390 157 336 211 q 533 103 445 103 q 615 117 576 103 q 697 161 654 130 l 761 71 q 650 5 708 26 q 519 -16 592 -16 q 289 75 387 -16 q 151 325 191 165 l 28 325 l 28 401 l 140 401 q 139 427 140 412 q 138 463 138 454 q 139 500 138 471 q 140 525 140 515 l 28 525 l 28 602 l 151 602 q 292 852 195 765 q 529 940 390 940 q 648 922 592 940 q 758 867 704 905 l 682 778 z "},"✓":{"ha":1080,"x_min":100,"x_max":1050,"o":"m 1050 924 q 743 566 867 724 q 558 300 619 409 q 509 204 541 269 q 385 7 439 62 q 341 -19 367 -11 q 281 -28 316 -28 q 223 -13 242 -28 q 184 50 204 3 q 124 235 149 139 q 100 355 100 331 q 140 426 100 395 q 216 456 180 456 q 271 366 248 456 q 278 341 275 351 q 309 251 296 278 q 335 224 322 224 q 444 374 352 224 q 585 600 526 509 q 705 775 652 703 q 790 876 759 848 q 868 919 819 904 q 1044 949 918 935 l 1050 924 z "},"✗":{"ha":1080,"x_min":82,"x_max":978,"o":"m 534 354 q 362 100 455 253 q 245 -89 270 -54 q 208 -127 227 -116 q 161 -139 189 -139 q 105 -111 128 -139 q 82 -41 82 -83 q 171 141 82 6 q 446 510 260 275 q 344 775 372 696 q 317 882 317 855 q 335 926 317 910 q 386 942 353 942 q 557 737 473 942 q 581 681 572 701 q 692 817 623 732 q 896 1014 848 1014 q 952 991 927 1014 q 978 945 978 969 q 869 795 978 935 q 664 517 760 655 q 720 407 684 477 q 822 155 822 211 q 801 87 822 115 q 749 58 779 58 q 578 271 689 58 q 534 354 551 324 z "},"♫":{"ha":1132,"x_min":39,"x_max":945,"o":"m 386 163 q 379 56 386 90 q 358 -4 373 23 q 278 -84 332 -54 q 158 -114 224 -114 q 72 -82 106 -114 q 39 0 39 -50 q 109 130 39 71 q 267 189 179 189 q 293 187 279 189 q 321 180 307 184 l 321 860 l 945 1034 l 945 314 q 938 208 945 241 q 917 147 932 175 q 836 67 890 97 q 717 37 782 37 q 631 69 664 37 q 597 151 597 101 q 667 281 597 222 q 825 340 737 340 q 851 338 838 340 q 879 332 865 336 l 879 869 l 386 733 l 386 163 z "},"∕":{"ha":815,"x_min":81,"x_max":734,"o":"m 81 0 l 618 926 l 734 926 l 197 0 l 81 0 z "}," ":{"ha":815,"x_min":0,"x_max":0,"o":""},"∔":{"ha":815,"x_min":57,"x_max":758,"o":"m 468 408 l 468 118 l 347 118 l 347 408 l 57 408 l 57 528 l 347 528 l 347 818 l 468 818 l 468 528 l 758 528 l 758 408 l 468 408 z "},"≌":{"ha":815,"x_min":56,"x_max":760,"o":"m 760 831 l 760 705 l 215 468 l 760 231 l 760 106 l 56 425 l 56 511 l 760 831 z "},"≨":{"ha":815,"x_min":57,"x_max":758,"o":"m 57 664 l 758 664 l 758 545 l 57 545 l 57 664 m 57 392 l 758 392 l 758 272 l 57 272 l 57 392 z "},"≩":{"ha":815,"x_min":56,"x_max":760,"o":"m 56 831 l 760 511 l 760 425 l 56 106 l 56 231 l 600 468 l 56 705 l 56 831 z "},"٫":{"ha":815,"x_min":331,"x_max":486,"o":"m 331 0 l 331 155 l 486 155 l 486 0 l 331 0 z "}}}
